<svg width="24" height="23" viewBox="0 0 24 23" fill="none" xmlns="http://www.w3.org/2000/svg">
<path d="M22.9929 11.0098C22.6045 8.89721 21.548 7.02408 19.9375 5.59303C18.3889 4.21695 16.3923 3.30009 14.1609 2.93958C13.5257 2.63578 12.8564 2.5 12 2.5C11.1436 2.5 10.4743 2.63582 9.83909 2.93958C7.60767 3.30009 5.61112 4.21695 4.06252 5.59303C2.45205 7.02408 1.39548 8.89713 1.00709 11.0099C0.982897 11.1418 1.02127 11.2791 1.11236 11.3868C1.21115 11.5036 1.35952 11.5734 1.50918 11.5734C1.58841 11.5734 1.6661 11.5535 1.73391 11.516C1.74259 11.5112 1.7514 11.5068 1.76008 11.5021L11.7546 21.3993C11.7548 21.3995 11.7549 21.3996 11.7551 21.3997C11.7552 21.3999 11.7553 21.4 11.7555 21.4001C11.7563 21.401 11.7572 21.4016 11.758 21.4024C11.7598 21.4042 11.7615 21.406 11.7634 21.4077C11.7641 21.4085 11.765 21.409 11.7657 21.4097C11.7686 21.4123 11.7717 21.4147 11.7747 21.4173C11.777 21.4192 11.7791 21.4214 11.7814 21.4232C11.7824 21.424 11.7833 21.4246 11.7843 21.4253C11.7895 21.4294 11.7948 21.4331 11.8002 21.4369C11.8023 21.4383 11.8041 21.4399 11.8062 21.4412C11.8073 21.4419 11.8083 21.4428 11.8095 21.4435C11.8107 21.4443 11.8119 21.4449 11.8131 21.4457C11.8175 21.4485 11.8222 21.451 11.8267 21.4536C11.827 21.4538 11.8273 21.4539 11.8275 21.4541C11.8313 21.4563 11.835 21.4588 11.839 21.4608C11.8406 21.4616 11.8423 21.4622 11.8439 21.463C11.8454 21.4638 11.8469 21.4646 11.8486 21.4654C11.8499 21.466 11.8512 21.4665 11.8525 21.4671C11.8533 21.4675 11.8543 21.4678 11.8552 21.4682C11.8564 21.4688 11.8576 21.4693 11.8589 21.4699C11.8625 21.4715 11.8661 21.4734 11.8698 21.4749C11.8718 21.4757 11.8739 21.4763 11.876 21.4771C11.8772 21.4776 11.8782 21.4781 11.8794 21.4785C11.8828 21.4798 11.8862 21.4806 11.8895 21.4817C11.8901 21.4819 11.8907 21.4821 11.8913 21.4824C11.8924 21.4827 11.8934 21.4831 11.8944 21.4834C11.8958 21.4839 11.8971 21.4844 11.8985 21.4849C11.8996 21.4851 11.9005 21.4856 11.9015 21.4858C11.903 21.4863 11.9046 21.4866 11.906 21.4869C11.9119 21.4886 11.9178 21.4899 11.9237 21.4912C11.9239 21.4913 11.9242 21.4913 11.9244 21.4913C11.9276 21.492 11.9307 21.493 11.9339 21.4936C11.9348 21.4938 11.9356 21.4938 11.9364 21.494C11.9394 21.4946 11.9423 21.495 11.9452 21.4955C11.9477 21.4959 11.9502 21.4961 11.9526 21.4964C11.9559 21.4969 11.9593 21.4974 11.9626 21.4977C11.964 21.4978 11.9654 21.4982 11.9669 21.4983C11.967 21.4983 11.9673 21.4983 11.9675 21.4983C11.9784 21.4994 11.9892 21.5 12 21.5H12.0001H12.0001C12.011 21.5 12.0218 21.4994 12.0327 21.4983C12.0329 21.4983 12.0331 21.4983 12.0333 21.4983C12.0347 21.4982 12.0361 21.4979 12.0376 21.4977C12.0409 21.4973 12.0442 21.4969 12.0475 21.4964C12.05 21.4961 12.0525 21.4958 12.0549 21.4955C12.0579 21.495 12.0608 21.4946 12.0637 21.494C12.0645 21.4939 12.0654 21.4938 12.0662 21.4936C12.0697 21.493 12.0729 21.4919 12.0763 21.4912C12.0823 21.4899 12.0883 21.4886 12.0943 21.4869C12.0957 21.4865 12.0972 21.4863 12.0987 21.4858C12.0997 21.4856 12.1006 21.4851 12.1017 21.4848C12.103 21.4844 12.1043 21.4838 12.1056 21.4835C12.1072 21.4829 12.1088 21.4823 12.1105 21.4818C12.1139 21.4806 12.1173 21.4797 12.1208 21.4785C12.122 21.478 12.1231 21.4774 12.1243 21.477C12.1263 21.4762 12.1284 21.4757 12.1304 21.4749C12.1352 21.473 12.1399 21.4706 12.1448 21.4683C12.1458 21.4678 12.1469 21.4675 12.1479 21.467C12.1491 21.4664 12.1503 21.4661 12.1515 21.4655C12.1532 21.4647 12.1547 21.4638 12.1564 21.463C12.158 21.4622 12.1595 21.4617 12.1611 21.4608C12.1653 21.4586 12.1693 21.456 12.1735 21.4536C12.178 21.451 12.1827 21.4485 12.1871 21.4457C12.1882 21.4449 12.1894 21.4444 12.1906 21.4436C12.1918 21.4429 12.1929 21.4419 12.1941 21.4412C12.196 21.4399 12.1978 21.4384 12.1997 21.4371C12.1997 21.4371 12.1998 21.437 12.1999 21.4369C12.2053 21.4331 12.2107 21.4294 12.2159 21.4254C12.2168 21.4247 12.2178 21.424 12.2186 21.4234C12.221 21.4215 12.2231 21.4193 12.2254 21.4173C12.2285 21.4147 12.2317 21.4122 12.2347 21.4095C12.2353 21.4089 12.236 21.4085 12.2366 21.4079C12.2385 21.4061 12.2402 21.4042 12.242 21.4025C12.2429 21.4017 12.2438 21.401 12.2446 21.4002C12.2447 21.4001 12.2448 21.3999 12.245 21.3998C12.2451 21.3996 12.2452 21.3996 12.2454 21.3994L22.2401 11.502C22.2488 11.5067 22.2577 11.5112 22.2664 11.516C22.3342 11.5535 22.4119 11.5734 22.4912 11.5734C22.6409 11.5734 22.7892 11.5037 22.888 11.3868C22.9787 11.2792 23.0171 11.1418 22.9929 11.0098ZM10.1413 3.55527C10.6844 3.29546 11.2435 3.18378 12 3.18378C12.7564 3.18378 13.3155 3.29546 13.8586 3.55527C15.3824 4.91354 16.1017 8.36538 15.4481 11.0084C14.4087 10.3967 13.2175 10.0731 12.0013 10.0729H12.0006C12.0004 10.0728 12.0001 10.0729 11.9998 10.0729C10.7835 10.0729 9.59172 10.3964 8.55187 11.0084C7.89827 8.36534 8.61753 4.91354 10.1413 3.55527ZM4.52586 6.10124C5.75679 5.00741 7.2943 4.22293 9.01589 3.80329C7.82437 5.50824 7.30788 8.3946 7.80052 10.8239C6.84317 10.3317 5.77565 10.0728 4.68794 10.0728C3.67731 10.0728 2.67798 10.2976 1.77279 10.7259C2.18822 8.92971 3.13439 7.33772 4.52586 6.10124ZM2.42296 11.19C3.13899 10.9052 3.90964 10.7566 4.68789 10.7566C5.78906 10.7566 6.86715 11.0517 7.80563 11.6098C7.88319 11.6559 7.97669 11.7054 8.08209 11.74L11.1193 19.8018L2.42296 11.19ZM11.9998 20.1771L8.79108 11.6601C8.82614 11.6418 8.86004 11.6229 8.89219 11.6039C9.82813 11.0496 10.9027 10.7567 12.0002 10.7567C13.0972 10.7567 14.1718 11.0496 15.1078 11.6039C15.1398 11.6228 15.1736 11.6417 15.2086 11.66L11.9998 20.1771ZM12.8802 19.8018L15.9174 11.7401C16.023 11.7055 16.1166 11.6559 16.1942 11.6098C17.1327 11.0516 18.2109 10.7566 19.312 10.7566C20.0902 10.7566 20.8607 10.9052 21.5767 11.1899L12.8802 19.8018ZM19.312 10.0728C18.2243 10.0728 17.1568 10.3318 16.1994 10.824C16.692 8.39465 16.1755 5.50828 14.984 3.80333C16.7056 4.22297 18.2431 5.00745 19.4741 6.10128C20.8655 7.33772 21.8117 8.92983 22.2272 10.7259C21.322 10.2976 20.3226 10.0728 19.312 10.0728Z" fill="#1A1C1D" stroke="#1A1C1D" stroke-width="0.7"/>
</svg>
