<svg width="32" height="32" viewBox="0 0 32 32" fill="none" xmlns="http://www.w3.org/2000/svg">
<path d="M19.3334 5.33337H12.6667L9.33335 9.33337H5.33335C4.62611 9.33337 3.94783 9.61433 3.44774 10.1144C2.94764 10.6145 2.66669 11.2928 2.66669 12V24C2.66669 24.7073 2.94764 25.3856 3.44774 25.8857C3.94783 26.3858 4.62611 26.6667 5.33335 26.6667H26.6667C27.3739 26.6667 28.0522 26.3858 28.5523 25.8857C29.0524 25.3856 29.3334 24.7073 29.3334 24V12C29.3334 11.2928 29.0524 10.6145 28.5523 10.1144C28.0522 9.61433 27.3739 9.33337 26.6667 9.33337H22.6667L19.3334 5.33337Z" stroke="#191A1B" stroke-width="2" stroke-linecap="round" stroke-linejoin="round"/>
<path d="M16 21.3334C18.2092 21.3334 20 19.5425 20 17.3334C20 15.1242 18.2092 13.3334 16 13.3334C13.7909 13.3334 12 15.1242 12 17.3334C12 19.5425 13.7909 21.3334 16 21.3334Z" stroke="#191A1B" stroke-width="2" stroke-linecap="round" stroke-linejoin="round"/>
</svg>
