<svg width="32" height="32" viewBox="0 0 32 32" fill="none" xmlns="http://www.w3.org/2000/svg">
<path d="M29.3333 13.3333V21.3333M8 16.6666V21.3333C8 22.3941 8.84285 23.4116 10.3431 24.1617C11.8434 24.9119 13.8783 25.3333 16 25.3333C18.1217 25.3333 20.1566 24.9119 21.6569 24.1617C23.1571 23.4116 24 22.3941 24 21.3333V16.6666M28.56 14.5626C28.7987 14.4573 29.0012 14.2843 29.1426 14.065C29.2839 13.8457 29.3578 13.5898 29.3551 13.3289C29.3524 13.0681 29.2732 12.8137 29.1274 12.5974C28.9816 12.3811 28.7755 12.2123 28.5347 12.1119L17.1067 6.90661C16.7592 6.74815 16.3819 6.66614 16 6.66614C15.6181 6.66614 15.2408 6.74815 14.8933 6.90661L3.46667 12.1066C3.22929 12.2106 3.02735 12.3815 2.88555 12.5984C2.74376 12.8153 2.66824 13.0688 2.66824 13.3279C2.66824 13.5871 2.74376 13.8406 2.88555 14.0575C3.02735 14.2744 3.22929 14.4453 3.46667 14.5493L14.8933 19.7599C15.2408 19.9184 15.6181 20.0004 16 20.0004C16.3819 20.0004 16.7592 19.9184 17.1067 19.7599L28.56 14.5626Z" stroke="#191A1B" stroke-width="2" stroke-linecap="round" stroke-linejoin="round"/>
</svg>
