<svg width="32" height="32" viewBox="0 0 32 32" fill="none" xmlns="http://www.w3.org/2000/svg">
<path d="M20 6.66665L25.3333 12M28.232 9.08265C28.9369 8.37788 29.333 7.42194 29.3332 6.42512C29.3333 5.4283 28.9374 4.47226 28.2327 3.76731C27.5279 3.06237 26.5719 2.66626 25.5751 2.66614C24.5783 2.66601 23.6223 3.06188 22.9173 3.76665L5.12266 21.5653C4.81309 21.874 4.58415 22.254 4.45599 22.672L2.69466 28.4746C2.6602 28.59 2.6576 28.7124 2.68713 28.8291C2.71666 28.9458 2.77722 29.0523 2.86239 29.1373C2.94756 29.2223 3.05415 29.2827 3.17087 29.3121C3.28759 29.3414 3.41007 29.3386 3.52533 29.304L9.32933 27.544C9.74689 27.417 10.1269 27.1894 10.436 26.8813L28.232 9.08265Z" stroke="#191A1B" stroke-width="2" stroke-linecap="round" stroke-linejoin="round"/>
</svg>
