<svg width="32" height="32" viewBox="0 0 32 32" fill="none" xmlns="http://www.w3.org/2000/svg">
<path d="M13.3333 17.3333C17.0152 17.3333 20 14.3486 20 10.6667C20 6.98477 17.0152 4 13.3333 4C9.65139 4 6.66663 6.98477 6.66663 10.6667C6.66663 14.3486 9.65139 17.3333 13.3333 17.3333Z" stroke="#191A1B" stroke-width="2" stroke-linecap="round" stroke-linejoin="round"/>
<path d="M2.66663 28C2.66678 26.3213 3.06315 24.6663 3.8235 23.1697C4.58385 21.6731 5.68671 20.377 7.04239 19.3869C8.39807 18.3969 9.96828 17.7408 11.6253 17.472C13.2824 17.2032 14.9795 17.3293 16.5786 17.84" stroke="#191A1B" stroke-width="2" stroke-linecap="round" stroke-linejoin="round"/>
<path d="M24 28C26.2091 28 28 26.2091 28 24C28 21.7909 26.2091 20 24 20C21.7909 20 20 21.7909 20 24C20 26.2091 21.7909 28 24 28Z" stroke="#191A1B" stroke-width="2" stroke-linecap="round" stroke-linejoin="round"/>
<path d="M29.3334 29.3334L26.8 26.8" stroke="#191A1B" stroke-width="2" stroke-linecap="round" stroke-linejoin="round"/>
</svg>
