<svg width="32" height="32" viewBox="0 0 32 32" fill="none" xmlns="http://www.w3.org/2000/svg">
<path d="M12 17.6667C12.7364 17.6667 13.3334 17.0697 13.3334 16.3333C13.3334 15.597 12.7364 15 12 15C11.2636 15 10.6667 15.597 10.6667 16.3333C10.6667 17.0697 11.2636 17.6667 12 17.6667Z" fill="#191A1B" stroke="#191A1B" stroke-width="2" stroke-linecap="round" stroke-linejoin="round"/>
<path d="M12 8.00004C12.7364 8.00004 13.3334 7.40309 13.3334 6.66671C13.3334 5.93033 12.7364 5.33337 12 5.33337C11.2636 5.33337 10.6667 5.93033 10.6667 6.66671C10.6667 7.40309 11.2636 8.00004 12 8.00004Z" fill="#191A1B" stroke="#191A1B" stroke-width="2" stroke-linecap="round" stroke-linejoin="round"/>
<path d="M12 27.3333C12.7364 27.3333 13.3334 26.7363 13.3334 26C13.3334 25.2636 12.7364 24.6666 12 24.6666C11.2636 24.6666 10.6667 25.2636 10.6667 26C10.6667 26.7363 11.2636 27.3333 12 27.3333Z" fill="#191A1B" stroke="#191A1B" stroke-width="2" stroke-linecap="round" stroke-linejoin="round"/>
<path d="M21.6667 17.6667C22.4031 17.6667 23 17.0697 23 16.3333C23 15.597 22.4031 15 21.6667 15C20.9303 15 20.3334 15.597 20.3334 16.3333C20.3334 17.0697 20.9303 17.6667 21.6667 17.6667Z" fill="#191A1B" stroke="#191A1B" stroke-width="2" stroke-linecap="round" stroke-linejoin="round"/>
<path d="M21.6667 8.00004C22.4031 8.00004 23 7.40309 23 6.66671C23 5.93033 22.4031 5.33337 21.6667 5.33337C20.9303 5.33337 20.3334 5.93033 20.3334 6.66671C20.3334 7.40309 20.9303 8.00004 21.6667 8.00004Z" fill="#191A1B" stroke="#191A1B" stroke-width="2" stroke-linecap="round" stroke-linejoin="round"/>
<path d="M21.6667 27.3333C22.4031 27.3333 23 26.7363 23 26C23 25.2636 22.4031 24.6666 21.6667 24.6666C20.9303 24.6666 20.3334 25.2636 20.3334 26C20.3334 26.7363 20.9303 27.3333 21.6667 27.3333Z" fill="#191A1B" stroke="#191A1B" stroke-width="2" stroke-linecap="round" stroke-linejoin="round"/>
</svg>
