<svg width="32" height="32" viewBox="0 0 32 32" fill="none" xmlns="http://www.w3.org/2000/svg">
<path d="M2.66663 12.6666C2.66665 11.1829 3.11675 9.73408 3.95747 8.51152C4.79819 7.28896 5.98998 6.35018 7.37544 5.81917C8.76089 5.28816 10.2748 5.1899 11.7173 5.53736C13.1598 5.88483 14.4629 6.66168 15.4546 7.76531C15.5245 7.83999 15.6089 7.89953 15.7027 7.94024C15.7965 7.98095 15.8977 8.00195 16 8.00195C16.1022 8.00195 16.2034 7.98095 16.2972 7.94024C16.391 7.89953 16.4754 7.83999 16.5453 7.76531C17.5339 6.65451 18.8373 5.87113 20.2821 5.51944C21.727 5.16775 23.2446 5.26443 24.6331 5.79662C26.0216 6.3288 27.2151 7.27124 28.0548 8.49851C28.8944 9.72577 29.3404 11.1797 29.3333 12.6666C29.3333 15.72 27.3333 18 25.3333 20L18.0106 27.084C17.7622 27.3693 17.4559 27.5985 17.112 27.7564C16.7682 27.9142 16.3947 27.9971 16.0163 27.9995C15.638 28.0019 15.2635 27.9238 14.9177 27.7703C14.5719 27.6168 14.2627 27.3915 14.0106 27.1093L6.66663 20C4.66663 18 2.66663 15.7333 2.66663 12.6666Z" fill="#191A1B" stroke="#191A1B" stroke-width="2" stroke-linecap="round" stroke-linejoin="round"/>
</svg>
