<svg width="32" height="32" viewBox="0 0 32 32" fill="none" xmlns="http://www.w3.org/2000/svg">
<path d="M19.9997 16H13.333M19.9997 10.6667H13.333M25.333 22.6667V6.66667C25.333 5.95942 25.0521 5.28115 24.552 4.78105C24.0519 4.28095 23.3736 4 22.6664 4H5.33305M5.33305 4C6.04029 4 6.71857 4.28095 7.21867 4.78105C7.71876 5.28115 7.99971 5.95942 7.99971 6.66667V25.3333C7.99971 26.0406 8.28067 26.7189 8.78076 27.219C9.28086 27.719 9.95914 28 10.6664 28M5.33305 4C4.6258 4 3.94753 4.28095 3.44743 4.78105C2.94733 5.28115 2.66638 5.95942 2.66638 6.66667V9.33333C2.66638 9.68696 2.80686 10.0261 3.05691 10.2761C3.30695 10.5262 3.64609 10.6667 3.99972 10.6667H7.99971M10.6664 28H26.6664C27.3736 28 28.0519 27.719 28.552 27.219C29.0521 26.7189 29.333 26.0406 29.333 25.3333V24C29.333 23.6464 29.1926 23.3072 28.9425 23.0572C28.6925 22.8071 28.3533 22.6667 27.9997 22.6667H14.6664C14.3128 22.6667 13.9736 22.8071 13.7236 23.0572C13.4735 23.3072 13.333 23.6464 13.333 24V25.3333C13.333 26.0406 13.0521 26.7189 12.552 27.219C12.0519 27.719 11.3736 28 10.6664 28Z" stroke="#191A1B" stroke-width="2" stroke-linecap="round" stroke-linejoin="round"/>
</svg>
