<svg width="32" height="32" viewBox="0 0 32 32" fill="none" xmlns="http://www.w3.org/2000/svg">
<path d="M26.6667 13.3333C26.6667 19.9906 19.2813 26.924 16.8013 29.0653C16.5703 29.239 16.2891 29.333 16 29.333C15.7109 29.333 15.4297 29.239 15.1987 29.0653C12.7187 26.924 5.33333 19.9906 5.33333 13.3333C5.33333 10.5043 6.45714 7.79121 8.45753 5.79082C10.4579 3.79043 13.171 2.66663 16 2.66663C18.829 2.66663 21.5421 3.79043 23.5425 5.79082C25.5429 7.79121 26.6667 10.5043 26.6667 13.3333Z" stroke="#191A1B" stroke-width="2" stroke-linecap="round" stroke-linejoin="round"/>
<path d="M16 17.3333C18.2091 17.3333 20 15.5424 20 13.3333C20 11.1242 18.2091 9.33329 16 9.33329C13.7909 9.33329 12 11.1242 12 13.3333C12 15.5424 13.7909 17.3333 16 17.3333Z" stroke="#191A1B" stroke-width="2" stroke-linecap="round" stroke-linejoin="round"/>
</svg>
