<svg width="32" height="32" viewBox="0 0 32 32" fill="none" xmlns="http://www.w3.org/2000/svg">
<path d="M8.5 16C8.5 17.933 6.933 19.5 5 19.5C3.067 19.5 1.5 17.933 1.5 16C1.5 14.067 3.067 12.5 5 12.5C6.933 12.5 8.5 14.067 8.5 16Z" fill="#191A1B"/>
<path d="M19.5 16C19.5 17.933 17.933 19.5 16 19.5C14.067 19.5 12.5 17.933 12.5 16C12.5 14.067 14.067 12.5 16 12.5C17.933 12.5 19.5 14.067 19.5 16Z" fill="#191A1B"/>
<path d="M30.5 16C30.5 17.933 28.933 19.5 27 19.5C25.067 19.5 23.5 17.933 23.5 16C23.5 14.067 25.067 12.5 27 12.5C28.933 12.5 30.5 14.067 30.5 16Z" fill="#191A1B"/>
</svg>
