<svg width="32" height="32" viewBox="0 0 32 32" fill="none" xmlns="http://www.w3.org/2000/svg">
<path d="M13.6907 26.6667C13.9247 27.0721 14.2614 27.4087 14.6667 27.6427C15.0721 27.8767 15.5319 27.9999 16 27.9999C16.4681 27.9999 16.9279 27.8767 17.3333 27.6427C17.7387 27.4087 18.0753 27.0721 18.3093 26.6667M18.5547 3.08537C17.3513 2.67986 16.0687 2.56664 14.8129 2.75507C13.5571 2.9435 12.3642 3.42816 11.3329 4.16897C10.3015 4.90979 9.46132 5.88548 8.88177 7.01536C8.30222 8.14524 7.99997 9.39685 8 10.6667C8 16.6654 6.11866 18.608 4.34666 20.436C4.17276 20.6272 4.05814 20.8647 4.01674 21.1198C3.97534 21.3748 4.00895 21.6364 4.11348 21.8727C4.218 22.109 4.38894 22.3099 4.60551 22.4508C4.82207 22.5918 5.07493 22.6668 5.33333 22.6667H26.6667C26.9251 22.6668 27.1779 22.5918 27.3945 22.4508C27.6111 22.3099 27.782 22.109 27.8865 21.8727C27.991 21.6364 28.0246 21.3748 27.9833 21.1198C27.9419 20.8647 27.8272 20.6272 27.6533 20.436C27.3789 20.1535 27.1186 19.8575 26.8733 19.5494" stroke="#191A1B" stroke-width="2" stroke-linecap="round" stroke-linejoin="round"/>
<path d="M24 14.6666C26.2091 14.6666 28 12.8758 28 10.6666C28 8.45749 26.2091 6.66663 24 6.66663C21.7909 6.66663 20 8.45749 20 10.6666C20 12.8758 21.7909 14.6666 24 14.6666Z" fill="#BA0808"/>
</svg>
