<svg width="32" height="32" viewBox="0 0 32 32" fill="none" xmlns="http://www.w3.org/2000/svg">
<path d="M29.991 14.5408C29.4967 11.4275 28.1519 8.66707 26.1022 6.55815C24.1313 4.53024 21.5902 3.17907 18.7502 2.6478C17.9417 2.2001 17.09 2 16 2C14.91 2 14.0583 2.20016 13.2498 2.6478C10.4098 3.17907 7.8687 4.53024 5.89776 6.55815C3.84806 8.66707 2.50334 11.4273 2.00902 14.5409C1.97823 14.7352 2.02707 14.9376 2.14301 15.0964C2.26873 15.2684 2.45757 15.3713 2.64805 15.3713C2.74889 15.3713 2.84777 15.342 2.93406 15.2868C2.94511 15.2797 2.95632 15.2732 2.96737 15.2662L15.6877 29.8517C15.6888 29.8528 15.691 29.855 15.692 29.8562C15.6943 29.8588 15.6965 29.8615 15.6988 29.864C15.6998 29.8651 15.7009 29.8659 15.7018 29.8669C15.7055 29.8708 15.7094 29.8744 15.7133 29.8781C15.7162 29.8809 15.7188 29.8841 15.7218 29.8869C15.7231 29.888 15.7243 29.8889 15.7255 29.89C15.732 29.8959 15.7389 29.9015 15.7458 29.907C15.7483 29.909 15.7507 29.9114 15.7534 29.9134C15.7548 29.9144 15.756 29.9157 15.7575 29.9168C15.759 29.9179 15.7606 29.9189 15.7622 29.92C15.7677 29.9241 15.7737 29.9279 15.7795 29.9317C15.7792 29.9314 15.7798 29.9319 15.7795 29.9317C15.7844 29.9349 15.7901 29.9392 15.7951 29.9422C15.7972 29.9434 15.7992 29.9443 15.8013 29.9455C15.8032 29.9467 15.8052 29.9479 15.8073 29.949C15.8089 29.9499 15.8106 29.9506 15.8123 29.9515C15.8133 29.9521 15.8146 29.9526 15.8157 29.9532C15.8172 29.954 15.8188 29.9548 15.8204 29.9557C15.8251 29.9581 15.8295 29.9609 15.8342 29.963C15.8369 29.9642 15.8395 29.9651 15.8422 29.9662C15.8436 29.9669 15.845 29.9677 15.8465 29.9684C15.8508 29.9702 15.8551 29.9714 15.8594 29.9731C15.8602 29.9733 15.8609 29.9737 15.8617 29.974C15.8631 29.9745 15.8643 29.9751 15.8656 29.9756C15.8674 29.9762 15.8691 29.9771 15.8709 29.9777C15.8722 29.9781 15.8733 29.9787 15.8747 29.9791C15.8765 29.9798 15.8785 29.9802 15.8804 29.9807C15.8878 29.9832 15.8954 29.9851 15.9029 29.9871C15.9027 29.987 15.9031 29.9871 15.9029 29.9871C15.907 29.9881 15.9118 29.9897 15.9159 29.9906C15.917 29.9909 15.9181 29.9909 15.9191 29.9912C15.9228 29.992 15.9266 29.9927 15.9303 29.9933C15.9334 29.9939 15.9366 29.9942 15.9397 29.9947C15.9439 29.9954 15.9482 29.9962 15.9524 29.9966C15.9542 29.9968 15.956 29.9974 15.9578 29.9976C15.9576 29.9976 15.9581 29.9976 15.9578 29.9976C15.9717 29.9991 15.9863 30 16.0001 30C16.0138 30 16.0277 29.9991 16.0416 29.9976C16.0413 29.9976 16.0418 29.9976 16.0416 29.9976C16.0434 29.9974 16.046 29.9969 16.0478 29.9966C16.052 29.9961 16.0563 29.9954 16.0605 29.9947C16.0636 29.9942 16.0668 29.9939 16.0699 29.9933C16.0737 29.9926 16.0773 29.992 16.0811 29.9912C16.0821 29.991 16.0832 29.9909 16.0843 29.9906C16.0886 29.9897 16.0928 29.9881 16.0971 29.9871C16.1048 29.9851 16.1123 29.9832 16.12 29.9807C16.1218 29.9801 16.1238 29.9797 16.1256 29.9791C16.1269 29.9787 16.1281 29.9781 16.1294 29.9776C16.1311 29.977 16.1328 29.9762 16.1344 29.9756C16.1365 29.9749 16.1385 29.9739 16.1406 29.9731C16.145 29.9714 16.1494 29.9701 16.1537 29.9683C16.1553 29.9676 16.1567 29.9667 16.1582 29.9661C16.1608 29.965 16.1634 29.9642 16.1659 29.9631C16.1721 29.9602 16.1781 29.9566 16.1842 29.9533C16.1856 29.9526 16.1869 29.9521 16.1882 29.9513C16.1898 29.9505 16.1913 29.95 16.1928 29.9491C16.195 29.948 16.1969 29.9467 16.199 29.9455C16.201 29.9444 16.203 29.9435 16.205 29.9423C16.2104 29.9391 16.2155 29.9352 16.2208 29.9317C16.2266 29.9278 16.2325 29.9241 16.2381 29.9199C16.2395 29.9189 16.2411 29.918 16.2425 29.9169C16.2441 29.9158 16.2455 29.9144 16.247 29.9133C16.2495 29.9114 16.2517 29.9092 16.2541 29.9073C16.261 29.9017 16.2681 29.896 16.2748 29.89C16.2759 29.889 16.2772 29.888 16.2783 29.887C16.2813 29.8843 16.2839 29.881 16.2869 29.8782C16.2908 29.8744 16.2949 29.8707 16.2986 29.8667C16.2995 29.8658 16.3003 29.8651 16.3012 29.8642C16.3036 29.8617 16.3058 29.8589 16.3081 29.8563C16.3091 29.8552 16.3103 29.8542 16.3113 29.8529L29.0328 15.2661C29.0439 15.2731 29.0553 15.2796 29.0664 15.2868C29.1526 15.342 29.2515 15.3713 29.3524 15.3713C29.5429 15.3713 29.7318 15.2686 29.8574 15.0964C29.9729 14.9377 30.0218 14.7352 29.991 14.5408ZM13.6344 3.55514C14.3256 3.17226 15.0372 3.00767 15.9999 3.00767C16.9627 3.00767 17.6743 3.17226 18.3655 3.55514C20.3049 5.55679 21.2203 10.6437 20.3885 14.5387C19.0656 13.6373 17.5496 13.1604 16.0017 13.16C16.0014 13.16 16.0001 13.16 15.9998 13.16C14.4517 13.16 12.9349 13.6368 11.6115 14.5386C10.7796 10.6437 11.695 5.55679 13.6344 3.55514ZM6.48745 7.30709C8.05409 5.69513 10.0109 4.53906 12.202 3.92064C10.6856 6.43319 10.0282 10.6868 10.6552 14.2668C9.43676 13.5415 8.0781 13.1599 6.69374 13.1599C5.40748 13.1599 4.13561 13.4911 2.98356 14.1223C3.51228 11.4754 4.7165 9.12927 6.48745 7.30709ZM3.81104 14.8064C4.72235 14.3865 5.70318 14.1677 6.69368 14.1677C8.09516 14.1677 9.46728 14.6025 10.6617 15.425C10.7604 15.493 10.8794 15.5659 11.0136 15.6168L14.8791 27.4974L3.81104 14.8064ZM15.9997 28.0505L11.9159 15.4991C11.9605 15.4722 12.0037 15.4442 12.0446 15.4162C13.2358 14.5994 14.6035 14.1678 16.0002 14.1678C17.3964 14.1678 18.7641 14.5994 19.9553 15.4162C19.9961 15.4442 20.0392 15.472 20.0836 15.4989L15.9997 28.0505ZM17.1203 27.4974L20.9858 15.617C21.1202 15.566 21.2392 15.493 21.3381 15.425C22.5326 14.6024 23.9047 14.1677 25.3062 14.1677C26.2966 14.1677 27.2773 14.3865 28.1886 14.8062L17.1203 27.4974ZM25.3062 13.16C23.9218 13.16 22.5632 13.5416 21.3447 14.2669C21.9717 10.6868 21.3143 6.43325 19.7978 3.9207C21.989 4.53912 23.9458 5.69519 25.5124 7.30715C27.2834 9.12927 28.4877 11.4755 29.0164 14.1224C27.8643 13.4913 26.5924 13.16 25.3062 13.16Z" fill="#191A1B"/>
<path d="M15.6877 29.8517L2.96737 15.2662C2.95632 15.2732 2.94511 15.2797 2.93406 15.2868C2.84777 15.342 2.74889 15.3713 2.64805 15.3713C2.45757 15.3713 2.26873 15.2684 2.14301 15.0964C2.02707 14.9376 1.97823 14.7352 2.00902 14.5409C2.50334 11.4273 3.84806 8.66707 5.89776 6.55815C7.8687 4.53024 10.4098 3.17907 13.2498 2.6478C14.0583 2.20016 14.91 2 16 2C17.09 2 17.9417 2.2001 18.7502 2.6478C21.5902 3.17907 24.1313 4.53024 26.1022 6.55815C28.1519 8.66707 29.4967 11.4275 29.991 14.5408C30.0218 14.7352 29.9729 14.9377 29.8574 15.0964C29.7318 15.2686 29.5429 15.3713 29.3524 15.3713C29.2515 15.3713 29.1526 15.342 29.0664 15.2868C29.0553 15.2796 29.0439 15.2731 29.0328 15.2661L16.3113 29.8529M15.6877 29.8517C15.6879 29.8518 15.6875 29.8514 15.6877 29.8517ZM15.6877 29.8517C15.6888 29.8528 15.691 29.855 15.692 29.8562C15.6943 29.8588 15.6965 29.8615 15.6988 29.864C15.6998 29.8651 15.7009 29.8659 15.7018 29.8669C15.7055 29.8708 15.7094 29.8744 15.7133 29.8781C15.7162 29.8809 15.7188 29.8841 15.7218 29.8869C15.7231 29.888 15.7243 29.8889 15.7255 29.89C15.732 29.8959 15.7389 29.9015 15.7458 29.907C15.7483 29.909 15.7507 29.9114 15.7534 29.9134C15.7548 29.9144 15.756 29.9157 15.7575 29.9168C15.759 29.9179 15.7606 29.9189 15.7622 29.92C15.7677 29.9241 15.7737 29.9279 15.7795 29.9317M15.7795 29.9317C15.7798 29.9319 15.7792 29.9314 15.7795 29.9317ZM15.7795 29.9317C15.7844 29.9349 15.7901 29.9392 15.7951 29.9422C15.7972 29.9434 15.7992 29.9443 15.8013 29.9455C15.8032 29.9467 15.8052 29.9479 15.8073 29.949C15.8089 29.9499 15.8106 29.9506 15.8123 29.9515C15.8133 29.9521 15.8146 29.9526 15.8157 29.9532C15.8172 29.954 15.8188 29.9548 15.8204 29.9557C15.8251 29.9581 15.8295 29.9609 15.8342 29.963C15.8369 29.9642 15.8395 29.9651 15.8422 29.9662C15.8436 29.9669 15.845 29.9677 15.8465 29.9684C15.8508 29.9702 15.8551 29.9714 15.8594 29.9731C15.8602 29.9733 15.8609 29.9737 15.8617 29.974C15.8631 29.9745 15.8643 29.9751 15.8656 29.9756C15.8674 29.9762 15.8691 29.9771 15.8709 29.9777C15.8722 29.9781 15.8733 29.9787 15.8747 29.9791C15.8765 29.9798 15.8785 29.9802 15.8804 29.9807C15.8878 29.9832 15.8954 29.9851 15.9029 29.9871M15.9029 29.9871C15.9031 29.9871 15.9027 29.987 15.9029 29.9871ZM15.9029 29.9871C15.907 29.9881 15.9118 29.9897 15.9159 29.9906C15.917 29.9909 15.9181 29.9909 15.9191 29.9912C15.9228 29.992 15.9266 29.9927 15.9303 29.9933C15.9334 29.9939 15.9366 29.9942 15.9397 29.9947C15.9439 29.9954 15.9482 29.9962 15.9524 29.9966C15.9542 29.9968 15.956 29.9974 15.9578 29.9976M15.9578 29.9976C15.9581 29.9976 15.9576 29.9976 15.9578 29.9976ZM15.9578 29.9976C15.9717 29.9991 15.9863 30 16.0001 30C16.0138 30 16.0277 29.9991 16.0416 29.9976M16.0416 29.9976C16.0418 29.9976 16.0413 29.9976 16.0416 29.9976ZM16.0416 29.9976C16.0434 29.9974 16.046 29.9969 16.0478 29.9966C16.052 29.9961 16.0563 29.9954 16.0605 29.9947C16.0636 29.9942 16.0668 29.9939 16.0699 29.9933C16.0737 29.9926 16.0773 29.992 16.0811 29.9912C16.0821 29.991 16.0832 29.9909 16.0843 29.9906C16.0886 29.9897 16.0928 29.9881 16.0971 29.9871C16.1048 29.9851 16.1123 29.9832 16.12 29.9807C16.1218 29.9801 16.1238 29.9797 16.1256 29.9791C16.1269 29.9787 16.1281 29.9781 16.1294 29.9776C16.1311 29.977 16.1328 29.9762 16.1344 29.9756C16.1365 29.9749 16.1385 29.9739 16.1406 29.9731C16.145 29.9714 16.1494 29.9701 16.1537 29.9683C16.1553 29.9676 16.1567 29.9667 16.1582 29.9661C16.1608 29.965 16.1634 29.9642 16.1659 29.9631C16.1721 29.9602 16.1781 29.9566 16.1842 29.9533C16.1856 29.9526 16.1869 29.9521 16.1882 29.9513C16.1898 29.9505 16.1913 29.95 16.1928 29.9491C16.195 29.948 16.1969 29.9467 16.199 29.9455C16.201 29.9444 16.203 29.9435 16.205 29.9423C16.2104 29.9391 16.2155 29.9352 16.2208 29.9317C16.2266 29.9278 16.2325 29.9241 16.2381 29.9199C16.2395 29.9189 16.2411 29.918 16.2425 29.9169C16.2441 29.9158 16.2455 29.9144 16.247 29.9133C16.2495 29.9114 16.2517 29.9092 16.2541 29.9073C16.261 29.9017 16.2681 29.896 16.2748 29.89C16.2759 29.889 16.2772 29.888 16.2783 29.887C16.2813 29.8843 16.2839 29.881 16.2869 29.8782C16.2908 29.8744 16.2949 29.8707 16.2986 29.8667C16.2995 29.8658 16.3003 29.8651 16.3012 29.8642C16.3036 29.8617 16.3058 29.8588 16.3081 29.8563C16.3091 29.8552 16.3103 29.8542 16.3113 29.8529M16.3113 29.8529C16.3114 29.8527 16.3111 29.8532 16.3113 29.8529ZM13.6344 3.55514C14.3256 3.17226 15.0372 3.00767 15.9999 3.00767C16.9627 3.00767 17.6743 3.17226 18.3655 3.55514C20.3049 5.55679 21.2203 10.6437 20.3885 14.5387C19.0656 13.6373 17.5496 13.1604 16.0017 13.16C16.0014 13.16 16.0001 13.16 15.9998 13.16C14.4517 13.16 12.9349 13.6368 11.6115 14.5386C10.7796 10.6437 11.695 5.55679 13.6344 3.55514ZM6.48745 7.30709C8.05409 5.69513 10.0109 4.53906 12.202 3.92064C10.6856 6.43319 10.0282 10.6868 10.6552 14.2668C9.43676 13.5415 8.0781 13.1599 6.69374 13.1599C5.40748 13.1599 4.13561 13.4911 2.98356 14.1223C3.51228 11.4754 4.7165 9.12927 6.48745 7.30709ZM3.81104 14.8064C4.72235 14.3865 5.70318 14.1677 6.69368 14.1677C8.09516 14.1677 9.46728 14.6025 10.6617 15.425C10.7604 15.493 10.8794 15.5659 11.0136 15.6168L14.8791 27.4974L3.81104 14.8064ZM15.9997 28.0505L11.9159 15.4991C11.9605 15.4722 12.0037 15.4442 12.0446 15.4162C13.2358 14.5994 14.6035 14.1678 16.0002 14.1678C17.3964 14.1678 18.7641 14.5994 19.9553 15.4162C19.9961 15.4442 20.0392 15.472 20.0836 15.4989L15.9997 28.0505ZM17.1203 27.4974L20.9858 15.617C21.1202 15.566 21.2392 15.493 21.3381 15.425C22.5326 14.6024 23.9047 14.1677 25.3062 14.1677C26.2966 14.1677 27.2773 14.3865 28.1886 14.8062L17.1203 27.4974ZM25.3062 13.16C23.9218 13.16 22.5632 13.5416 21.3447 14.2669C21.9717 10.6868 21.3143 6.43325 19.7978 3.9207C21.989 4.53912 23.9458 5.69519 25.5124 7.30715C27.2834 9.12927 28.4877 11.4755 29.0164 14.1224C27.8643 13.4913 26.5924 13.16 25.3062 13.16Z" stroke="#191A1B" stroke-width="0.85"/>
</svg>
