<svg width="32" height="32" viewBox="0 0 32 32" fill="none" xmlns="http://www.w3.org/2000/svg">
<rect x="0.5" y="0.5" width="31" height="31" rx="15.5" stroke="#EAECEE"/>
<g clip-path="url(#clip0_2724_7305)">
<path d="M12.4659 15.1813L12.7734 14.1413L10.4665 16.5252C10.7621 17.2503 11.1921 17.9171 11.7407 18.4839C11.7407 18.4839 11.9434 17.3671 13.0038 16.4405C13.1943 16.274 13.0811 15.8499 12.7483 15.7755C12.5173 15.6854 12.3937 15.4254 12.4659 15.1813Z" fill="#3B120A"/>
<path d="M19.0224 16.7392C19.3149 17.041 19.5608 17.3783 19.7573 17.7459C19.7545 17.7313 19.7512 17.717 19.7469 17.7033C19.5363 17.0232 19.5489 16.4339 19.6749 16.1065C19.7196 15.9905 19.6665 15.8591 19.5549 15.8114L18.9958 15.5728C18.9245 15.5424 18.8999 15.4508 18.9457 15.3867L18.9858 15.3307C19.1188 15.1447 19.181 14.9148 19.1608 14.6846L19.113 14.1413L17.8096 15.4881L19.0224 16.7392Z" fill="#3B120A"/>
<path d="M15.9433 8C15.2045 8 14.4796 8.14234 13.8031 8.41221H18.0834C17.4069 8.14234 16.682 8 15.9433 8Z" fill="#F8DD74"/>
<path d="M19.5776 11.2726H21.1977C21.2663 11.4067 21.3299 11.5432 21.3886 11.682H19.4874C19.5319 11.5516 19.5626 11.4145 19.5776 11.2726ZM16.0332 11.2726H10.6887C10.6202 11.4067 10.5565 11.5432 10.4979 11.682H16.1235C16.079 11.5516 16.0483 11.4145 16.0332 11.2726Z" fill="#EB4335"/>
<path d="M21.5452 12.0914H19.289C18.969 12.5864 18.4235 12.913 17.8054 12.913C17.1874 12.913 16.6419 12.5864 16.3219 12.0914H10.3413C10.1176 12.7438 10 13.4364 10 14.1413C10 14.8154 10.1077 15.4781 10.3126 16.1053L12.4933 13.8518L12.7735 13.5623L14.3573 15.1989L15.6633 13.8516L15.9432 13.5628L16.2232 13.8516L17.5291 15.1989L19.1129 13.5623L21.5738 16.1052C21.7787 15.4781 21.8864 14.8154 21.8864 14.1413C21.8864 13.4364 21.7688 12.7438 21.5452 12.0914Z" fill="#EB4335"/>
<path d="M18.9118 8.82159H12.9745C12.7697 8.94359 12.5716 9.07831 12.3814 9.22544H19.5049C19.3147 9.07831 19.1166 8.94359 18.9118 8.82159Z" fill="#EB4335"/>
<path d="M19.4854 10.4537H20.6953C20.7918 10.5867 20.8832 10.7231 20.9687 10.8631H19.577C19.5615 10.7212 19.5304 10.5841 19.4854 10.4537ZM16.1253 10.4537H11.1911C11.0945 10.5867 11.0032 10.7231 10.9177 10.8631H16.0338C16.0493 10.7212 16.0804 10.5841 16.1253 10.4537Z" fill="#EB4335"/>
<path d="M18.9214 9.63489H19.9803C20.0363 9.68844 20.0916 9.74281 20.1457 9.79875C20.223 9.87862 20.2977 9.96064 20.3702 10.0443H19.2854C19.1846 9.8896 19.0617 9.75153 18.9214 9.63489ZM16.6895 9.63489H11.9062C11.8502 9.68844 11.7949 9.74281 11.7408 9.79875C11.6635 9.87862 11.5888 9.96064 11.5163 10.0443H16.3255C16.4263 9.8896 16.5492 9.75153 16.6895 9.63489Z" fill="#FBBC05"/>
<path d="M17.8054 12.5036C18.5713 12.5036 19.1922 11.8621 19.1922 11.0707C19.1922 10.2793 18.5713 9.6377 17.8054 9.6377C17.0395 9.6377 16.4186 10.2793 16.4186 11.0707C16.4186 11.8621 17.0395 12.5036 17.8054 12.5036Z" fill="#F8DD74"/>
<path d="M17.6574 23.5984H14.2289C15.3095 24.1338 16.5768 24.1338 17.6574 23.5984Z" fill="#3B120A"/>
<path d="M12.0043 19.5098C11.9914 19.644 11.9847 19.7788 11.9846 19.9136H13.7957C13.799 19.7765 13.8144 19.6414 13.8413 19.5098H12.0043Z" fill="#3B120A"/>
<path d="M16.881 21.9607C16.5925 22.1052 16.2736 22.1815 15.9432 22.1815C15.6128 22.1815 15.2939 22.1051 15.0053 21.9607H12.5154C12.5943 22.1013 12.682 22.238 12.7785 22.3701H19.1078C19.2044 22.238 19.2921 22.1013 19.371 21.9607H16.881Z" fill="#3B120A"/>
<path d="M13.1208 22.7795C13.1286 22.7877 13.1362 22.796 13.144 22.8041C13.2805 22.9449 13.4246 23.073 13.5747 23.1889H18.3117C18.4618 23.073 18.6059 22.9449 18.7423 22.8041C18.7502 22.796 18.7578 22.7877 18.7656 22.7795H13.1208Z" fill="#3B120A"/>
<path d="M13.9666 19.1003C14.0727 18.8443 14.2263 18.609 14.4229 18.4062L15.9432 16.8379L17.4634 18.4062C17.6601 18.609 17.8137 18.8444 17.9198 19.1003H19.8221C19.6727 18.3413 19.313 17.6176 18.7423 17.0289L15.9432 14.1413L13.144 17.0289C12.5734 17.6176 12.2137 18.3413 12.0643 19.1003H13.9666Z" fill="#3B120A"/>
<path d="M18.0451 19.5098C18.0719 19.6414 18.0874 19.7765 18.0907 19.9136H19.9017C19.9017 19.7788 19.895 19.644 19.882 19.5098H18.0451Z" fill="#3B120A"/>
<path d="M13.9259 20.7325C13.8788 20.6003 13.8441 20.4634 13.8224 20.3231H12.0043C12.0175 20.4603 12.0376 20.5969 12.0642 20.7325H13.9259Z" fill="#3B120A"/>
<path d="M17.7656 21.1419C17.6804 21.2817 17.5794 21.4127 17.4634 21.5323C17.4572 21.5387 17.4508 21.545 17.4445 21.5513H19.5719C19.6286 21.4171 19.6778 21.2804 19.72 21.1419H17.7656Z" fill="#3B120A"/>
<path d="M18.064 20.3231C18.0422 20.4634 18.0076 20.6004 17.9605 20.7325H19.8222C19.8488 20.5969 19.8689 20.4603 19.8821 20.3231H18.064Z" fill="#3B120A"/>
<path d="M14.4418 21.5513C14.4355 21.545 14.4292 21.5387 14.4229 21.5323C14.307 21.4127 14.206 21.2817 14.1208 21.1419H12.1664C12.2085 21.2805 12.2578 21.4171 12.3145 21.5513H14.4418Z" fill="#3B120A"/>
</g>
<defs>
<clipPath id="clip0_2724_7305">
<rect width="12" height="16" fill="white" transform="translate(10 8)"/>
</clipPath>
</defs>
</svg>
