<svg width="32" height="32" viewBox="0 0 32 32" fill="none" xmlns="http://www.w3.org/2000/svg">
<rect x="0.5" y="0.5" width="31" height="31" rx="15.5" stroke="#EAECEE"/>
<g clip-path="url(#clip0_2724_5696)">
<path d="M21.9991 14.9896C22.0003 14.9799 22.0003 14.97 21.9991 14.9603C22.0003 14.9524 22.0003 14.9443 21.9991 14.9363L21.9102 14.252C21.8974 14.1702 21.8631 14.0937 21.8111 14.0311L21.7959 14.0124L21.768 13.9831L20.229 12.5933L20.2722 12.6385C20.2369 12.5942 20.1925 12.5588 20.1424 12.5348C20.0923 12.5109 20.0377 12.499 19.9827 12.5001H19.5154C19.4394 12.4985 19.3652 12.5238 19.3046 12.572C19.241 12.5241 19.1645 12.4989 19.0862 12.5001H18.6189C18.5576 12.499 18.4972 12.515 18.4437 12.5463C18.3902 12.5776 18.3455 12.6232 18.3142 12.6785C18.2659 12.7574 18.2478 12.8524 18.2634 12.9447L18.3218 13.3761C18.2831 13.3531 18.2393 13.3411 18.1948 13.3414H15.9321C15.8509 13.342 15.7716 13.3669 15.7035 13.4133C15.6377 13.4565 15.5849 13.5184 15.5512 13.5917L15.3759 13.4346C15.307 13.3677 15.2159 13.3315 15.122 13.3335H11.5717C11.4902 13.335 11.4105 13.3589 11.3406 13.4027C11.2449 13.4614 11.1747 13.5569 11.145 13.6689L10.0175 17.6229C9.99641 17.688 9.99434 17.7583 10.0115 17.8247C10.0287 17.8911 10.0644 17.9506 10.114 17.9956C10.1269 18.0071 10.1405 18.0178 10.1546 18.0276C10.1546 18.0276 10.1318 18.0116 10.1191 17.9983L11.658 19.3908C11.7231 19.4537 11.8083 19.4888 11.8967 19.4893H15.475C15.5567 19.4871 15.6364 19.4623 15.7061 19.4175C15.7455 19.3949 15.7807 19.3651 15.8102 19.3296L15.8229 19.3109L15.8432 19.2843L15.8584 19.255L16.0261 19.4068C16.0902 19.4672 16.1735 19.5003 16.2597 19.5H19.8455C19.9272 19.4971 20.0067 19.4724 20.0766 19.4281C20.1151 19.4042 20.1502 19.3746 20.1808 19.3402L20.1934 19.3216L20.2138 19.295C20.2246 19.2781 20.2339 19.2603 20.2417 19.2417C20.25 19.2256 20.2568 19.2086 20.262 19.1911L21.2905 15.5807V15.5487C21.2918 15.5363 21.2918 15.5238 21.2905 15.5115V15.4875C21.2918 15.4795 21.2918 15.4715 21.2905 15.4635C21.2917 15.4467 21.2917 15.4298 21.2905 15.4129H21.6207C21.6494 15.4157 21.6783 15.4157 21.707 15.4129H21.7299C21.7485 15.4071 21.7664 15.3991 21.7832 15.389H21.8086L21.8543 15.3517L21.8746 15.3357L21.9102 15.2878V15.2718L21.9356 15.2266C21.9342 15.2178 21.9342 15.2087 21.9356 15.1999C21.9342 15.1956 21.9342 15.1909 21.9356 15.1866C21.941 15.171 21.9452 15.155 21.9483 15.1387C21.9471 15.1334 21.9471 15.128 21.9483 15.1227C21.947 15.1148 21.947 15.1067 21.9483 15.0988C21.9483 15.0988 21.9991 14.9949 21.9991 14.9896Z" fill="#1F0640"/>
<path d="M15.2261 13.637C15.2396 13.6498 15.249 13.6666 15.2531 13.6851C15.2572 13.7037 15.2557 13.7231 15.249 13.7408L14.1239 17.6921C14.1098 17.7352 14.0808 17.7713 14.0427 17.7933C14.0117 17.815 13.9758 17.8279 13.9385 17.8306H10.3629C10.3323 17.829 10.3034 17.8158 10.2816 17.7933C10.2686 17.7807 10.2595 17.7644 10.2555 17.7464C10.2514 17.7283 10.2525 17.7094 10.2587 17.6921L11.3863 13.7408C11.3993 13.6971 11.4274 13.6601 11.465 13.637C11.4966 13.6168 11.5323 13.6049 11.5692 13.6024H15.1448C15.1751 13.6027 15.2042 13.6151 15.2261 13.637ZM13.3595 16.896L14.0325 14.5369H12.1482L11.4777 16.896H13.3595ZM18.6392 13.6769C18.6514 13.6918 18.6667 13.7036 18.6838 13.7114C18.701 13.7193 18.7196 13.7229 18.7383 13.7222H19.203C19.2207 13.7224 19.2382 13.7178 19.2537 13.709C19.2693 13.7001 19.2824 13.6873 19.2919 13.6716C19.3002 13.6594 19.306 13.6455 19.309 13.6309C19.3121 13.6163 19.3123 13.6011 19.3097 13.5864L19.2183 12.8835C19.2096 12.8509 19.1939 12.8209 19.1726 12.7956C19.1603 12.7807 19.1451 12.769 19.128 12.7611C19.1108 12.7533 19.0922 12.7496 19.0735 12.7504H18.6088C18.5911 12.7502 18.5736 12.7547 18.5581 12.7636C18.5425 12.7724 18.5294 12.7853 18.5199 12.8009C18.5021 12.8382 18.4945 12.8622 18.5021 12.8835L18.5961 13.5864C18.6009 13.6206 18.616 13.6523 18.6392 13.6769ZM20.1147 12.8782C20.106 12.8456 20.0904 12.8156 20.069 12.7903C20.0573 12.7755 20.0425 12.7637 20.0258 12.7558C20.0091 12.748 19.9908 12.7443 19.9725 12.745H19.5052C19.4878 12.7445 19.4706 12.7489 19.4554 12.7578C19.4402 12.7667 19.4276 12.7798 19.4189 12.7956C19.402 12.8192 19.3947 12.8489 19.3986 12.8782L19.4925 13.5811C19.4984 13.6149 19.5134 13.6463 19.5357 13.6716C19.5481 13.6862 19.5634 13.6978 19.5805 13.7056C19.5976 13.7134 19.6161 13.7172 19.6347 13.7169H20.102C20.1194 13.7171 20.1365 13.7126 20.1516 13.7037C20.1668 13.6948 20.1795 13.6819 20.1884 13.6663C20.1972 13.6544 20.2034 13.6405 20.2065 13.6258C20.2095 13.611 20.2094 13.5958 20.2061 13.5811L20.1147 12.8782ZM18.2304 13.9432L18.1847 13.5971H15.9321C15.8967 13.5991 15.8625 13.611 15.833 13.6317C15.8143 13.6424 15.7981 13.6572 15.7853 13.6751C15.7726 13.693 15.7638 13.7136 15.7594 13.7355L15.5715 14.3958C15.564 14.4123 15.5614 14.4308 15.5641 14.4489C15.5669 14.467 15.5747 14.4837 15.5867 14.497C15.6081 14.5181 15.6361 14.5304 15.6654 14.5316H18.4031L17.7301 16.8907H15.0001C14.9649 16.8915 14.9306 16.9026 14.901 16.9226C14.8651 16.9465 14.8389 16.9835 14.8274 17.0265L14.6369 17.6868C14.6307 17.7037 14.6291 17.7221 14.6322 17.74C14.6354 17.7579 14.6431 17.7744 14.6547 17.788C14.6754 17.8105 14.7036 17.8238 14.7334 17.8252H18.3193C18.3563 17.8219 18.3921 17.8091 18.4234 17.788C18.4609 17.7659 18.489 17.7297 18.5021 17.6868L19.5332 14.0763H18.3726C18.3542 14.0767 18.3359 14.0731 18.3189 14.0658C18.3018 14.0585 18.2864 14.0475 18.2736 14.0337C18.2526 14.0096 18.2377 13.9803 18.2304 13.9485V13.9432Z" fill="#F8F3FF"/>
</g>
<defs>
<clipPath id="clip0_2724_5696">
<rect width="12" height="7" fill="white" transform="translate(10 12.5)"/>
</clipPath>
</defs>
</svg>
