<svg width="32" height="32" viewBox="0 0 32 32" fill="none" xmlns="http://www.w3.org/2000/svg">
<rect x="0.5" y="0.5" width="31" height="31" rx="15.5" stroke="#EAECEE"/>
<g clip-path="url(#clip0_2724_1369)">
<path d="M14.9975 22H14.6145C13.6196 22 13.021 21.9998 12.5637 21.9148L15.21 18.4103L14.9975 22Z" fill="#08432B"/>
<path d="M19.3745 21.9254C18.9251 21.9996 18.3363 22 17.3855 22H16.9327L16.7191 18.4093L19.3745 21.9254Z" fill="#08432B"/>
<path d="M21.9015 19.5012C21.8821 19.5932 21.8594 19.6797 21.8317 19.7628C21.6501 20.307 21.3314 20.7857 20.916 21.1595L17.932 17.8132L21.9015 19.5012Z" fill="#08432B"/>
<path d="M11.0456 21.1238C10.6492 20.7553 10.3442 20.29 10.1683 19.7628C10.1379 19.6715 10.1126 19.5763 10.0922 19.4741L13.9972 17.8137L11.0456 21.1238Z" fill="#08432B"/>
<path d="M22 17.3855C22 17.7228 21.999 18.0146 21.9957 18.2708L18.4519 16.9018H22V17.3855Z" fill="#08432B"/>
<path d="M13.4789 16.9018L10.0032 18.2442C10.0002 17.9944 10 17.7112 10 17.3855V16.9018H13.4789Z" fill="#08432B"/>
<path d="M17.3855 10C18.6342 10 19.2586 10.0002 19.7628 10.1683C20.7394 10.4941 21.5059 11.2606 21.8317 12.2372C21.9998 12.7414 22 13.3658 22 14.6145V16.0048H18.2527L20.9554 14.8558L20.1538 14.3237L17.5314 15.3363L18.7624 13.7074L17.8771 13.465L16.5178 14.9885L16.4166 13.2727H15.5148L15.4119 14.9885L14.0536 13.465L13.1689 13.7074L14.3983 15.3358L11.7775 14.3237L10.9759 14.8558L13.6781 16.0048H10V14.6145C10 13.3658 10.0002 12.7414 10.1683 12.2372C10.4941 11.2606 11.2606 10.4941 12.2372 10.1683C12.7414 10.0002 13.3658 10 14.6145 10H17.3855Z" fill="#08432B"/>
</g>
<defs>
<clipPath id="clip0_2724_1369">
<rect width="12" height="12" fill="white" transform="translate(10 10)"/>
</clipPath>
</defs>
</svg>
