<svg width="32" height="32" viewBox="0 0 32 32" fill="none" xmlns="http://www.w3.org/2000/svg">
<rect x="0.5" y="0.5" width="31" height="31" rx="15.5" stroke="#EAECEE"/>
<g clip-path="url(#clip0_2724_1374)">
<path d="M10 19.575L11.2016 17.375H13.1943C14.5018 17.375 15.6073 18.3953 15.7801 19.7616L16 21.5H13.3913L13.0153 20.575C12.7686 19.9684 12.2027 19.575 11.5766 19.575H10Z" fill="#4285F4"/>
<path d="M22 19.575L20.7984 17.375H18.8057C17.4982 17.375 16.3927 18.3953 16.2199 19.7616L16 21.5H18.6087L18.9847 20.575C19.2314 19.9684 19.7973 19.575 20.4234 19.575H22Z" fill="#4285F4"/>
<path d="M11.2016 17.375L14.9565 10.5H16L15.8965 13.1191C15.8072 15.3787 14.1075 17.1989 11.9658 17.3287L11.2016 17.375Z" fill="#4285F4"/>
<path d="M20.7984 17.375L17.0435 10.5H16L16.1035 13.1191C16.1928 15.3787 17.8925 17.1989 20.0342 17.3287L20.7984 17.375Z" fill="#4285F4"/>
</g>
<defs>
<clipPath id="clip0_2724_1374">
<rect width="12" height="11" fill="white" transform="translate(10 10.5)"/>
</clipPath>
</defs>
</svg>
