<svg width="32" height="32" viewBox="0 0 32 32" fill="none" xmlns="http://www.w3.org/2000/svg">
<rect x="0.5" y="0.5" width="31" height="31" rx="15.5" stroke="#EAECEE"/>
<g clip-path="url(#clip0_2724_1378)">
<path d="M12.9285 11L15.36 13.2072C15.5044 13.3383 15.5876 13.5306 15.5876 13.7331V15.3966L13.156 13.1893C13.0117 13.0583 12.9285 12.866 12.9285 12.6635V11Z" fill="#9747FF"/>
<path d="M12.9285 21L15.36 18.7928C15.5044 18.6618 15.5876 18.4695 15.5876 18.2669V16.6035L13.156 18.8107C13.0117 18.9417 12.9285 19.134 12.9285 19.3365V21Z" fill="#9747FF"/>
<path d="M10.0276 13.3276L12.4261 15.4926C12.5424 15.5976 12.6896 15.6552 12.8418 15.6552H14.776L12.3835 13.4906C12.2671 13.3853 12.1196 13.3276 11.9672 13.3276H10.0276Z" fill="#9747FF"/>
<path d="M10.0276 18.6724L12.4113 16.5086C12.5278 16.4029 12.6756 16.3448 12.8284 16.3448H14.7818L12.3833 18.5099C12.267 18.6148 12.1198 18.6724 11.9676 18.6724H10.0276Z" fill="#9747FF"/>
<path d="M18.8914 11L16.4598 13.2072C16.3155 13.3383 16.2323 13.5306 16.2323 13.7331V15.3966L18.6638 13.1893C18.8082 13.0583 18.8914 12.866 18.8914 12.6635V11Z" fill="#9747FF"/>
<path d="M18.8914 21L16.4598 18.7928C16.3155 18.6618 16.2323 18.4695 16.2323 18.2669V16.6035L18.6638 18.8107C18.8082 18.9417 18.8914 19.134 18.8914 19.3365V21Z" fill="#9747FF"/>
<path d="M21.7923 13.3276L19.3938 15.4926C19.2775 15.5976 19.1302 15.6552 18.9781 15.6552H17.0438L19.4364 13.4906C19.5528 13.3853 19.7002 13.3276 19.8526 13.3276H21.7923Z" fill="#9747FF"/>
<path d="M21.7923 18.6724L19.4085 16.5086C19.292 16.4029 19.1442 16.3448 18.9915 16.3448H17.038L19.4365 18.5099C19.5528 18.6148 19.7001 18.6724 19.8522 18.6724H21.7923Z" fill="#9747FF"/>
</g>
<defs>
<clipPath id="clip0_2724_1378">
<rect width="12" height="10" fill="white" transform="translate(10 11)"/>
</clipPath>
</defs>
</svg>
