<svg width="32" height="32" viewBox="0 0 32 32" fill="none" xmlns="http://www.w3.org/2000/svg">
<rect x="0.5" y="0.5" width="31" height="31" rx="15.5" stroke="#EAECEE"/>
<g clip-path="url(#clip0_2724_1371)">
<path fill-rule="evenodd" clip-rule="evenodd" d="M16 10C18.243 10 19.3646 9.99994 20.2 10.4822C20.7473 10.7982 21.2018 11.2527 21.5178 11.8C22.0001 12.6354 22 13.757 22 16C22 18.243 22.0001 19.3646 21.5178 20.2C21.2018 20.7473 20.7473 21.2018 20.2 21.5178C19.3646 22.0001 18.243 22 16 22C13.757 22 12.6354 22.0001 11.8 21.5178C11.2527 21.2018 10.7982 20.7473 10.4822 20.2C9.99994 19.3646 10 18.243 10 16C10 13.757 9.99994 12.6354 10.4822 11.8C10.7982 11.2527 11.2527 10.7982 11.8 10.4822C12.6354 9.99994 13.757 10 16 10ZM16.6 11.2C13.949 11.2 11.8 13.349 11.8 16C11.8 18.651 13.949 20.8 16.6 20.8C19.251 20.8 21.4 18.651 21.4 16C21.4 13.349 19.251 11.2 16.6 11.2Z" fill="#EB4335"/>
<path d="M20.8 16C20.8 17.6568 19.4568 19 17.8 19C16.1432 19 14.8 17.6568 14.8 16C14.8 14.3432 16.1432 13 17.8 13C19.4568 13 20.8 14.3432 20.8 16Z" fill="#EB4335"/>
</g>
<defs>
<clipPath id="clip0_2724_1371">
<rect width="12" height="12" fill="white" transform="translate(10 10)"/>
</clipPath>
</defs>
</svg>
