<svg width="32" height="32" viewBox="0 0 32 32" fill="none" xmlns="http://www.w3.org/2000/svg">
<path d="M19.3333 16.6666L22 14M15.3333 12.6666L18 9.99998M11.3333 8.66665L14 5.99998M23.3333 20.6666L26 18M28.4 20.4C28.6983 20.6973 28.935 21.0505 29.0965 21.4395C29.2581 21.8285 29.3412 22.2455 29.3412 22.6666C29.3412 23.0878 29.2581 23.5048 29.0965 23.8938C28.935 24.2828 28.6983 24.636 28.4 24.9333L24.9333 28.4C24.6361 28.6983 24.2828 28.935 23.8938 29.0965C23.5049 29.258 23.0878 29.3412 22.6667 29.3412C22.2455 29.3412 21.8285 29.258 21.4395 29.0965C21.0506 28.935 20.6973 28.6983 20.4 28.4L3.60001 11.6C3.00075 10.9978 2.66434 10.1828 2.66434 9.33331C2.66434 8.48378 3.00075 7.66881 3.60001 7.06665L7.06668 3.59998C7.66884 3.00072 8.48381 2.66431 9.33334 2.66431C10.1829 2.66431 10.9978 3.00072 11.6 3.59998L28.4 20.4Z" stroke="#191A1B" stroke-width="2" stroke-linecap="round" stroke-linejoin="round"/>
</svg>
