<svg width="32" height="32" viewBox="0 0 32 32" fill="none" xmlns="http://www.w3.org/2000/svg">
<g clip-path="url(#clip0_2637_9127)">
<path d="M16.2027 9.19467C14.9387 9.19467 12.9827 7.75733 10.9227 7.808C8.20267 7.844 5.70933 9.38533 4.308 11.8267C1.48533 16.7267 3.58 23.964 6.33333 27.9467C7.684 29.8853 9.27733 32.0667 11.3893 31.9987C13.416 31.912 14.176 30.6827 16.636 30.6827C19.0773 30.6827 19.7693 31.9987 21.916 31.9467C24.0987 31.912 25.484 29.9733 26.8173 28.016C28.3587 25.7653 28.9987 23.5827 29.0333 23.4627C28.9813 23.4453 24.7907 21.8347 24.74 16.9867C24.7053 12.9333 28.0467 10.9947 28.2027 10.908C26.2973 8.12133 23.372 7.80933 22.3493 7.74C19.6827 7.532 17.4493 9.19467 16.2027 9.19467ZM20.7067 5.10667C21.8307 3.75733 22.5733 1.87067 22.3667 0C20.7573 0.0693333 18.8173 1.07333 17.6573 2.424C16.6173 3.61867 15.7187 5.54133 15.96 7.376C17.744 7.51467 19.58 6.45867 20.7053 5.108" fill="#191A1B"/>
</g>
<defs>
<clipPath id="clip0_2637_9127">
<rect width="32" height="32" fill="white"/>
</clipPath>
</defs>
</svg>
