<svg width="32" height="32" viewBox="0 0 32 32" fill="none" xmlns="http://www.w3.org/2000/svg">
<path d="M10 10.6666C10.3682 10.6666 10.6667 10.3681 10.6667 9.99996C10.6667 9.63177 10.3682 9.33329 10 9.33329C9.63181 9.33329 9.33334 9.63177 9.33334 9.99996C9.33334 10.3681 9.63181 10.6666 10 10.6666Z" fill="#191A1B"/>
<path d="M16.7813 3.44796C16.2814 2.94783 15.6032 2.66678 14.896 2.66663H5.33334C4.62609 2.66663 3.94782 2.94758 3.44772 3.44767C2.94762 3.94777 2.66667 4.62605 2.66667 5.33329V14.896C2.66682 15.6031 2.94787 16.2813 3.44801 16.7813L15.0533 28.3866C15.6594 28.9888 16.479 29.3268 17.3333 29.3268C18.1877 29.3268 19.0073 28.9888 19.6133 28.3866L28.3867 19.6133C28.9889 19.0073 29.3269 18.1876 29.3269 17.3333C29.3269 16.479 28.9889 15.6593 28.3867 15.0533L16.7813 3.44796Z" stroke="#191A1B" stroke-width="2" stroke-linecap="round" stroke-linejoin="round"/>
<path d="M10 10.6666C10.3682 10.6666 10.6667 10.3681 10.6667 9.99996C10.6667 9.63177 10.3682 9.33329 10 9.33329C9.63181 9.33329 9.33334 9.63177 9.33334 9.99996C9.33334 10.3681 9.63181 10.6666 10 10.6666Z" stroke="#191A1B" stroke-width="2" stroke-linecap="round" stroke-linejoin="round"/>
</svg>
