<svg width="32" height="32" viewBox="0 0 32 32" fill="none" xmlns="http://www.w3.org/2000/svg">
<path d="M12 18.6667L5.33331 12M5.33331 12L12 5.33337M5.33331 12H19.3333C20.2963 12 21.2499 12.1897 22.1397 12.5583C23.0294 12.9268 23.8378 13.467 24.5188 14.1479C25.1997 14.8289 25.7399 15.6373 26.1084 16.527C26.477 17.4167 26.6666 18.3703 26.6666 19.3334C26.6666 20.2964 26.477 21.25 26.1084 22.1397C25.7399 23.0294 25.1997 23.8379 24.5188 24.5188C23.8378 25.1998 23.0294 25.74 22.1397 26.1085C21.2499 26.477 20.2963 26.6667 19.3333 26.6667H14.6666" stroke="#191A1B" stroke-width="2" stroke-linecap="round" stroke-linejoin="round"/>
</svg>
