<svg width="24" height="24" viewBox="0 0 24 24" fill="none" xmlns="http://www.w3.org/2000/svg">
<path d="M14.9998 12H9.99976M14.9998 8H9.99976M18.9998 17V5C18.9998 4.46957 18.789 3.96086 18.414 3.58579C18.0389 3.21071 17.5302 3 16.9998 3H3.99976M3.99976 3C4.53019 3 5.0389 3.21071 5.41397 3.58579C5.78904 3.96086 5.99976 4.46957 5.99976 5V19C5.99976 19.5304 6.21047 20.0391 6.58554 20.4142C6.96061 20.7893 7.46932 21 7.99976 21M3.99976 3C3.46932 3 2.96061 3.21071 2.58554 3.58579C2.21047 3.96086 1.99976 4.46957 1.99976 5V7C1.99976 7.26522 2.10511 7.51957 2.29265 7.70711C2.48019 7.89464 2.73454 8 2.99976 8H5.99976M7.99976 21H19.9998C20.5302 21 21.0389 20.7893 21.414 20.4142C21.789 20.0391 21.9998 19.5304 21.9998 19V18C21.9998 17.7348 21.8944 17.4804 21.7069 17.2929C21.5193 17.1054 21.265 17 20.9998 17H10.9998C10.7345 17 10.4802 17.1054 10.2926 17.2929C10.1051 17.4804 9.99976 17.7348 9.99976 18V19C9.99976 19.5304 9.78904 20.0391 9.41397 20.4142C9.0389 20.7893 8.53019 21 7.99976 21Z" stroke="#191A1B" stroke-width="1.5" stroke-linecap="round" stroke-linejoin="round"/>
</svg>
