<svg width="21" height="16" viewBox="0 0 21 16" fill="none" xmlns="http://www.w3.org/2000/svg">
<path d="M2.25 6.25C3.2165 6.25 4 7.0335 4 8C4 8.9665 3.2165 9.75 2.25 9.75C1.2835 9.75 0.5 8.9665 0.5 8C0.5 7.0335 1.2835 6.25 2.25 6.25ZM10.3496 6.25C11.3161 6.25 12.0996 7.0335 12.0996 8C12.0996 8.9665 11.3161 9.75 10.3496 9.75C9.38329 9.74979 8.59961 8.96637 8.59961 8C8.59961 7.03363 9.38329 6.25021 10.3496 6.25ZM18.4502 6.25C19.4166 6.25011 20.2002 7.03357 20.2002 8C20.2002 8.96643 19.4166 9.74989 18.4502 9.75C17.4837 9.75 16.7002 8.9665 16.7002 8C16.7002 7.0335 17.4837 6.25 18.4502 6.25Z" fill="#191A1B" stroke="#191A1B"/>
</svg>
