<svg width="24" height="24" viewBox="0 0 24 24" fill="none" xmlns="http://www.w3.org/2000/svg">
<path d="M22.9929 10.9577C22.6045 8.73391 21.548 6.76219 19.9375 5.25582C18.3889 3.80732 16.3923 2.8422 14.1609 2.46271C13.5257 2.14293 12.8564 2 12 2C11.1436 2 10.4743 2.14297 9.83909 2.46271C7.60767 2.8422 5.61112 3.80732 4.06252 5.25582C2.45205 6.76219 1.39548 8.73382 1.00709 10.9578C0.982897 11.0966 1.02127 11.2412 1.11236 11.3546C1.21115 11.4775 1.35952 11.5509 1.50918 11.5509C1.58842 11.5509 1.6661 11.53 1.73391 11.4905C1.74259 11.4855 1.7514 11.4808 1.76008 11.4758L11.7546 21.894C11.7555 21.8949 11.7572 21.8964 11.758 21.8973C11.7598 21.8991 11.7615 21.9011 11.7634 21.9029C11.7641 21.9036 11.765 21.9042 11.7657 21.9049C11.7686 21.9077 11.7717 21.9103 11.7747 21.9129C11.777 21.9149 11.7791 21.9172 11.7814 21.9192C11.7824 21.92 11.7833 21.9207 11.7843 21.9214C11.7895 21.9257 11.7948 21.9296 11.8002 21.9336C11.8023 21.935 11.8041 21.9367 11.8062 21.9381C11.8073 21.9389 11.8083 21.9398 11.8095 21.9406C11.8107 21.9414 11.8119 21.942 11.8131 21.9428C11.8175 21.9458 11.8222 21.9485 11.8267 21.9512C11.8265 21.951 11.827 21.9513 11.8267 21.9512C11.8306 21.9535 11.835 21.9566 11.839 21.9587C11.8406 21.9595 11.8423 21.9602 11.8439 21.9611C11.8454 21.9619 11.8469 21.9628 11.8486 21.9636C11.8499 21.9642 11.8512 21.9647 11.8525 21.9654C11.8533 21.9658 11.8543 21.9662 11.8552 21.9666C11.8564 21.9671 11.8576 21.9677 11.8589 21.9683C11.8625 21.97 11.8661 21.972 11.8698 21.9736C11.8718 21.9744 11.8739 21.975 11.876 21.9759C11.8772 21.9764 11.8782 21.977 11.8794 21.9774C11.8828 21.9787 11.8862 21.9795 11.8895 21.9808C11.8901 21.9809 11.8907 21.9812 11.8913 21.9814C11.8924 21.9818 11.8934 21.9822 11.8944 21.9825C11.8958 21.983 11.8971 21.9836 11.8985 21.9841C11.8996 21.9843 11.9005 21.9848 11.9015 21.9851C11.903 21.9856 11.9046 21.9858 11.906 21.9862C11.9119 21.988 11.9178 21.9893 11.9237 21.9908C11.9235 21.9907 11.9239 21.9908 11.9237 21.9908C11.9269 21.9915 11.9307 21.9927 11.9339 21.9933C11.9348 21.9935 11.9356 21.9935 11.9364 21.9937C11.9394 21.9943 11.9423 21.9948 11.9452 21.9952C11.9477 21.9957 11.9502 21.9959 11.9526 21.9962C11.9559 21.9967 11.9593 21.9973 11.9626 21.9976C11.964 21.9977 11.9654 21.9981 11.9669 21.9983C11.9667 21.9983 11.967 21.9983 11.9669 21.9983C11.9778 21.9993 11.9892 22 12 22C12.0109 22 12.0218 21.9994 12.0327 21.9983C12.0324 21.9983 12.0329 21.9983 12.0327 21.9983C12.0341 21.9981 12.0361 21.9978 12.0376 21.9976C12.0409 21.9972 12.0442 21.9967 12.0475 21.9962C12.05 21.9958 12.0525 21.9956 12.0549 21.9952C12.0579 21.9947 12.0608 21.9943 12.0637 21.9937C12.0645 21.9936 12.0654 21.9935 12.0662 21.9933C12.0697 21.9926 12.0729 21.9915 12.0763 21.9908C12.0823 21.9894 12.0883 21.988 12.0943 21.9862C12.0957 21.9858 12.0972 21.9855 12.0987 21.9851C12.0997 21.9848 12.1006 21.9843 12.1017 21.984C12.103 21.9836 12.1043 21.983 12.1056 21.9826C12.1072 21.982 12.1088 21.9814 12.1105 21.9808C12.1139 21.9796 12.1173 21.9787 12.1208 21.9774C12.122 21.9769 12.1231 21.9762 12.1243 21.9758C12.1263 21.975 12.1284 21.9744 12.1304 21.9736C12.1352 21.9716 12.1399 21.969 12.1448 21.9666C12.1458 21.9662 12.1469 21.9658 12.1479 21.9652C12.1491 21.9646 12.1503 21.9643 12.1515 21.9637C12.1532 21.9628 12.1547 21.9619 12.1564 21.9611C12.158 21.9603 12.1595 21.9596 12.1611 21.9588C12.1653 21.9565 12.1693 21.9537 12.1735 21.9512C12.178 21.9484 12.1827 21.9458 12.1871 21.9428C12.1882 21.942 12.1894 21.9415 12.1906 21.9407C12.1918 21.9399 12.1929 21.9389 12.1941 21.9381C12.196 21.9367 12.1978 21.9352 12.1997 21.9338C12.2051 21.9298 12.2107 21.9257 12.2159 21.9215C12.2168 21.9207 12.2178 21.92 12.2186 21.9193C12.221 21.9174 12.2231 21.915 12.2254 21.913C12.2285 21.9103 12.2317 21.9076 12.2347 21.9048C12.2353 21.9041 12.236 21.9036 12.2366 21.903C12.2385 21.9012 12.2402 21.8992 12.242 21.8973C12.2429 21.8965 12.2438 21.8958 12.2446 21.8949L22.2401 11.4758C22.2488 11.4808 22.2577 11.4854 22.2664 11.4905C22.3342 11.53 22.4119 11.5509 22.4912 11.5509C22.6409 11.5509 22.7892 11.4775 22.888 11.3546C22.9787 11.2412 23.0171 11.0966 22.9929 10.9577ZM10.1413 3.11081C10.6844 2.83733 11.2435 2.71976 12 2.71976C12.7564 2.71976 13.3155 2.83733 13.8586 3.11081C15.3824 4.54056 16.1017 8.17408 15.4481 10.9562C14.4087 10.3123 13.2175 9.97171 12.0013 9.97144C12.0011 9.9714 12.0001 9.97144 11.9998 9.97144C10.7835 9.97144 9.59172 10.312 8.55187 10.9562C7.89827 8.17404 8.61753 4.54056 10.1413 3.11081ZM4.52586 5.79078C5.75679 4.63938 7.2943 3.81361 9.01589 3.37188C7.82437 5.16656 7.30788 8.20485 7.80052 10.762C6.84317 10.2439 5.77565 9.97135 4.68794 9.97135C3.67731 9.97135 2.67798 10.208 1.77279 10.6588C2.18822 8.76811 3.13439 7.09234 4.52586 5.79078ZM2.42296 11.1474C3.13899 10.8475 3.90964 10.6912 4.68789 10.6912C5.78906 10.6912 6.86715 11.0018 7.80563 11.5893C7.88319 11.6378 7.97669 11.6899 8.08209 11.7263L11.1193 20.2124L2.42296 11.1474ZM11.9998 20.6075L8.79108 11.6422C8.82614 11.623 8.86004 11.603 8.89219 11.583C9.82813 10.9996 10.9027 10.6913 12.0002 10.6913C13.0972 10.6913 14.1718 10.9996 15.1078 11.583C15.1398 11.603 15.1736 11.6229 15.2086 11.6421L11.9998 20.6075ZM12.8802 20.2124L15.9174 11.7264C16.023 11.69 16.1166 11.6378 16.1942 11.5893C17.1327 11.0017 18.2109 10.6912 19.312 10.6912C20.0902 10.6912 20.8607 10.8475 21.5767 11.1473L12.8802 20.2124ZM19.312 9.9714C18.2243 9.9714 17.1568 10.244 16.1994 10.7621C16.692 8.20489 16.1755 5.16661 14.984 3.37193C16.7056 3.81366 18.2431 4.63942 19.4741 5.79082C20.8655 7.09234 21.8117 8.76825 22.2272 10.6589C21.322 10.208 20.3226 9.9714 19.312 9.9714Z" fill="#191A1B"/>
<path d="M11.7546 21.894L1.76008 11.4758C1.7514 11.4808 1.74259 11.4855 1.73391 11.4905C1.6661 11.53 1.58842 11.5509 1.50918 11.5509C1.35952 11.5509 1.21115 11.4775 1.11236 11.3546C1.02127 11.2412 0.982897 11.0966 1.00709 10.9578C1.39548 8.73382 2.45205 6.76219 4.06252 5.25582C5.61112 3.80732 7.60767 2.8422 9.83909 2.46271C10.4743 2.14297 11.1436 2 12 2C12.8564 2 13.5257 2.14293 14.1609 2.46271C16.3923 2.8422 18.3889 3.80732 19.9375 5.25582C21.548 6.76219 22.6045 8.73391 22.9929 10.9577C23.0171 11.0966 22.9787 11.2412 22.888 11.3546C22.7892 11.4775 22.6409 11.5509 22.4912 11.5509C22.4119 11.5509 22.3342 11.53 22.2664 11.4905C22.2577 11.4854 22.2488 11.4808 22.2401 11.4758L12.2446 21.8949M11.7546 21.894C11.7548 21.8942 11.7545 21.8939 11.7546 21.894ZM11.7546 21.894C11.7555 21.8949 11.7572 21.8964 11.758 21.8973C11.7598 21.8991 11.7615 21.9011 11.7634 21.9029C11.7641 21.9036 11.765 21.9042 11.7657 21.9049C11.7686 21.9077 11.7717 21.9103 11.7747 21.9129C11.777 21.9149 11.7791 21.9172 11.7814 21.9192C11.7824 21.92 11.7833 21.9207 11.7843 21.9214C11.7895 21.9257 11.7948 21.9296 11.8002 21.9336C11.8023 21.935 11.8041 21.9367 11.8062 21.9381C11.8073 21.9389 11.8083 21.9398 11.8095 21.9406C11.8107 21.9414 11.8119 21.942 11.8131 21.9428C11.8175 21.9458 11.8222 21.9485 11.8267 21.9512M11.8267 21.9512C11.827 21.9513 11.8265 21.951 11.8267 21.9512ZM11.8267 21.9512C11.8306 21.9535 11.835 21.9566 11.839 21.9587C11.8406 21.9595 11.8423 21.9602 11.8439 21.9611C11.8454 21.9619 11.8469 21.9628 11.8486 21.9636C11.8499 21.9642 11.8512 21.9647 11.8525 21.9654C11.8533 21.9658 11.8543 21.9662 11.8552 21.9666C11.8564 21.9671 11.8576 21.9677 11.8589 21.9683C11.8625 21.97 11.8661 21.972 11.8698 21.9736C11.8718 21.9744 11.8739 21.975 11.876 21.9759C11.8772 21.9764 11.8782 21.977 11.8794 21.9774C11.8828 21.9787 11.8862 21.9795 11.8895 21.9808C11.8901 21.9809 11.8907 21.9812 11.8913 21.9814C11.8924 21.9818 11.8934 21.9822 11.8944 21.9825C11.8958 21.983 11.8971 21.9836 11.8985 21.9841C11.8996 21.9843 11.9005 21.9848 11.9015 21.9851C11.903 21.9856 11.9046 21.9858 11.906 21.9862C11.9119 21.988 11.9178 21.9893 11.9237 21.9908M11.9237 21.9908C11.9239 21.9908 11.9235 21.9907 11.9237 21.9908ZM11.9237 21.9908C11.9269 21.9915 11.9307 21.9927 11.9339 21.9933C11.9348 21.9935 11.9356 21.9935 11.9364 21.9937C11.9394 21.9943 11.9423 21.9948 11.9452 21.9952C11.9477 21.9957 11.9502 21.9959 11.9526 21.9962C11.9559 21.9967 11.9593 21.9973 11.9626 21.9976C11.964 21.9977 11.9654 21.9981 11.9669 21.9983M11.9669 21.9983C11.967 21.9983 11.9667 21.9983 11.9669 21.9983ZM11.9669 21.9983C11.9778 21.9993 11.9892 22 12 22C12.0109 22 12.0218 21.9994 12.0327 21.9983M12.0327 21.9983C12.0329 21.9983 12.0324 21.9983 12.0327 21.9983ZM12.0327 21.9983C12.0341 21.9981 12.0361 21.9978 12.0376 21.9976C12.0409 21.9972 12.0442 21.9967 12.0475 21.9962C12.05 21.9958 12.0525 21.9956 12.0549 21.9952C12.0579 21.9947 12.0608 21.9943 12.0637 21.9937C12.0645 21.9936 12.0654 21.9935 12.0662 21.9933C12.0697 21.9926 12.0729 21.9915 12.0763 21.9908C12.0823 21.9894 12.0883 21.988 12.0943 21.9862C12.0957 21.9858 12.0972 21.9855 12.0987 21.9851C12.0997 21.9848 12.1006 21.9843 12.1017 21.984C12.103 21.9836 12.1043 21.983 12.1056 21.9826C12.1072 21.9821 12.1088 21.9814 12.1105 21.9808C12.1139 21.9796 12.1173 21.9787 12.1208 21.9774C12.122 21.9769 12.1231 21.9762 12.1243 21.9758C12.1263 21.975 12.1284 21.9744 12.1304 21.9736C12.1352 21.9716 12.1399 21.969 12.1448 21.9666C12.1458 21.9662 12.1469 21.9658 12.1479 21.9652C12.1491 21.9646 12.1503 21.9643 12.1515 21.9637C12.1532 21.9628 12.1547 21.9619 12.1564 21.9611C12.158 21.9603 12.1595 21.9596 12.1611 21.9588C12.1653 21.9565 12.1693 21.9537 12.1735 21.9512C12.178 21.9484 12.1827 21.9458 12.1871 21.9428C12.1882 21.942 12.1894 21.9415 12.1906 21.9407C12.1918 21.9399 12.1929 21.9389 12.1941 21.9381C12.196 21.9367 12.1978 21.9352 12.1997 21.9338C12.2051 21.9298 12.2107 21.9257 12.2159 21.9215C12.2168 21.9207 12.2178 21.92 12.2186 21.9193C12.221 21.9174 12.2231 21.915 12.2254 21.913C12.2285 21.9103 12.2317 21.9076 12.2347 21.9048C12.2353 21.9041 12.236 21.9036 12.2366 21.903C12.2385 21.9012 12.2402 21.8992 12.242 21.8973C12.2429 21.8965 12.2438 21.8958 12.2446 21.8949M12.2446 21.8949C12.2447 21.8948 12.2444 21.8951 12.2446 21.8949ZM10.1413 3.11081C10.6844 2.83733 11.2435 2.71976 12 2.71976C12.7564 2.71976 13.3155 2.83733 13.8586 3.11081C15.3824 4.54056 16.1017 8.17408 15.4481 10.9562C14.4087 10.3123 13.2175 9.97171 12.0013 9.97144C12.0011 9.9714 12.0001 9.97144 11.9998 9.97144C10.7835 9.97144 9.59172 10.312 8.55187 10.9562C7.89827 8.17404 8.61753 4.54056 10.1413 3.11081ZM4.52586 5.79078C5.75679 4.63938 7.2943 3.81361 9.01589 3.37188C7.82437 5.16656 7.30788 8.20485 7.80052 10.762C6.84317 10.2439 5.77565 9.97135 4.68794 9.97135C3.67731 9.97135 2.67798 10.208 1.77279 10.6588C2.18822 8.76811 3.13439 7.09234 4.52586 5.79078ZM2.42296 11.1474C3.13899 10.8475 3.90964 10.6912 4.68789 10.6912C5.78906 10.6912 6.86715 11.0018 7.80563 11.5893C7.88319 11.6378 7.97669 11.6899 8.08209 11.7263L11.1193 20.2124L2.42296 11.1474ZM11.9998 20.6075L8.79108 11.6422C8.82614 11.623 8.86004 11.603 8.89219 11.583C9.82813 10.9996 10.9027 10.6913 12.0002 10.6913C13.0972 10.6913 14.1718 10.9996 15.1078 11.583C15.1398 11.603 15.1736 11.6229 15.2086 11.6421L11.9998 20.6075ZM12.8802 20.2124L15.9174 11.7264C16.023 11.69 16.1166 11.6378 16.1942 11.5893C17.1327 11.0017 18.2109 10.6912 19.312 10.6912C20.0902 10.6912 20.8607 10.8475 21.5767 11.1473L12.8802 20.2124ZM19.312 9.9714C18.2243 9.9714 17.1568 10.244 16.1994 10.7621C16.692 8.20489 16.1755 5.16661 14.984 3.37193C16.7056 3.81366 18.2431 4.63942 19.4741 5.79082C20.8655 7.09234 21.8117 8.76825 22.2272 10.6589C21.322 10.208 20.3226 9.9714 19.312 9.9714Z" stroke="#191A1B" stroke-width="0.6"/>
</svg>
