<svg width="48" height="48" viewBox="0 0 48 48" fill="none" xmlns="http://www.w3.org/2000/svg">
<rect x="0.5" y="0.5" width="47" height="47" rx="23.5" stroke="#EAECEE"/>
<g clip-path="url(#clip0_2724_7304)">
<path d="M17.8153 22.6185L18.3535 20.8635L14.3163 24.8863C14.8336 26.1098 15.5862 27.2351 16.5462 28.1916C16.5462 28.1916 16.9009 26.3071 18.7566 24.7434C19.09 24.4624 18.8919 23.7467 18.3095 23.6212C17.9053 23.4691 17.689 23.0303 17.8153 22.6185Z" fill="#5C0736"/>
<path d="M29.2892 25.2474C29.8011 25.7567 30.2314 26.3258 30.5753 26.9463C30.5704 26.9217 30.5646 26.8975 30.5571 26.8743C30.1886 25.7267 30.2106 24.7322 30.4311 24.1797C30.5093 23.9839 30.4164 23.7622 30.2211 23.6818L29.2427 23.2792C29.1178 23.2278 29.0748 23.0733 29.155 22.9651L29.2251 22.8705C29.4578 22.5568 29.5668 22.1688 29.5314 21.7803L29.4477 20.8635L27.1668 23.1363L29.2892 25.2474Z" fill="#5C0736"/>
<path d="M23.9007 10.5C22.6079 10.5 21.3393 10.7402 20.1554 11.1956H27.646C26.4621 10.7402 25.1935 10.5 23.9007 10.5Z" fill="#FBBC05"/>
<path d="M30.2608 16.0225H33.096C33.2159 16.2488 33.3273 16.4792 33.43 16.7134H30.1029C30.1808 16.4933 30.2345 16.262 30.2608 16.0225ZM24.0581 16.0225H14.7052C14.5853 16.2488 14.474 16.4792 14.3712 16.7134H24.2161C24.1382 16.4933 24.0845 16.262 24.0581 16.0225Z" fill="#EB4335"/>
<path d="M33.7041 17.4043H29.7557C29.1957 18.2395 28.2411 18.7907 27.1595 18.7907C26.0779 18.7907 25.1233 18.2395 24.5633 17.4043H14.0972C13.7059 18.5052 13.5 19.674 13.5 20.8635C13.5 22.0009 13.6885 23.1193 14.047 24.1777L17.8633 20.3749L18.3536 19.8864L21.1252 22.6481L23.4107 20.3746L23.9006 19.8872L24.3905 20.3746L26.676 22.6481L29.4476 19.8864L33.7542 24.1776C34.1128 23.1193 34.3012 22.0009 34.3012 20.8634C34.3012 19.674 34.0954 18.5052 33.7041 17.4043Z" fill="#EB4335"/>
<path d="M29.0956 11.8865H18.7054C18.347 12.0923 18.0003 12.3197 17.6674 12.568H30.1336C29.8007 12.3197 29.454 12.0923 29.0956 11.8865Z" fill="#FBBC05"/>
<path d="M30.0995 14.6407H32.2167C32.3857 14.865 32.5456 15.0953 32.6953 15.3316H30.2597C30.2327 15.0921 30.1782 14.8607 30.0995 14.6407ZM24.2193 14.6407H15.5845C15.4155 14.865 15.2555 15.0953 15.1059 15.3316H24.0592C24.0862 15.0921 24.1407 14.8607 24.2193 14.6407Z" fill="#EB4335"/>
<path d="M29.1124 13.2589H30.9655C31.0634 13.3493 31.1603 13.441 31.255 13.5354C31.3902 13.6702 31.5209 13.8086 31.6479 13.9498H29.7495C29.5731 13.6887 29.3579 13.4557 29.1124 13.2589ZM25.2066 13.2589H16.8358C16.7379 13.3493 16.641 13.441 16.5463 13.5354C16.4111 13.6702 16.2804 13.8086 16.1534 13.9498H24.5696C24.746 13.6887 24.9611 13.4557 25.2066 13.2589Z" fill="#EB4335"/>
<path d="M27.1595 18.0999C28.4998 18.0999 29.5863 17.0173 29.5863 15.6818C29.5863 14.3463 28.4998 13.2636 27.1595 13.2636C25.8191 13.2636 24.7326 14.3463 24.7326 15.6818C24.7326 17.0173 25.8191 18.0999 27.1595 18.0999Z" fill="#FBBC05"/>
<path d="M26.9005 36.8223H20.9006C22.7917 37.7259 25.0095 37.7259 26.9005 36.8223Z" fill="#5C0736"/>
<path d="M17.0076 29.9227C16.9849 30.1493 16.9732 30.3768 16.9731 30.6043H20.1425C20.1482 30.3728 20.1753 30.1449 20.2223 29.9227H17.0076Z" fill="#5C0736"/>
<path d="M25.5418 34.0587C25.0368 34.3025 24.4788 34.4314 23.9006 34.4314C23.3224 34.4314 22.7644 34.3025 22.2593 34.0587H17.902C18.04 34.2959 18.1935 34.5267 18.3624 34.7496H29.4387C29.6076 34.5266 29.7611 34.2959 29.8992 34.0587H25.5418Z" fill="#5C0736"/>
<path d="M18.9613 35.4405C18.975 35.4543 18.9883 35.4683 19.0021 35.482C19.2409 35.7196 19.493 35.9357 19.7557 36.1314H28.0454C28.3081 35.9357 28.5603 35.7196 28.7991 35.482C28.8129 35.4683 28.8261 35.4543 28.8398 35.4405H18.9613Z" fill="#5C0736"/>
<path d="M20.4415 29.2318C20.6272 28.7998 20.896 28.4027 21.2401 28.0604L23.9006 25.414L26.561 28.0604C26.9051 28.4027 27.1739 28.7999 27.3596 29.2318H30.6886C30.4272 27.9509 29.7977 26.7297 28.7991 25.7364L23.9006 20.8635L19.0021 25.7364C18.0035 26.7297 17.3739 27.951 17.1125 29.2318H20.4415Z" fill="#5C0736"/>
<path d="M27.5789 29.9227C27.6259 30.1449 27.653 30.3728 27.6587 30.6043H30.828C30.8279 30.3768 30.8163 30.1493 30.7936 29.9227H27.5789Z" fill="#5C0736"/>
<path d="M20.3702 31.986C20.2879 31.763 20.2272 31.5319 20.1891 31.2951H17.0075C17.0306 31.5267 17.0658 31.7573 17.1124 31.986H20.3702Z" fill="#5C0736"/>
<path d="M27.0898 32.6769C26.9407 32.9128 26.764 33.1338 26.561 33.3357C26.5501 33.3465 26.539 33.3571 26.5279 33.3678H30.2507C30.3501 33.1413 30.4362 32.9106 30.5099 32.6769H27.0898Z" fill="#5C0736"/>
<path d="M27.6121 31.2951C27.5739 31.5319 27.5132 31.7631 27.4309 31.986H30.6888C30.7354 31.7573 30.7705 31.5267 30.7937 31.2951H27.6121Z" fill="#5C0736"/>
<path d="M21.2732 33.3678C21.2621 33.3572 21.251 33.3466 21.2401 33.3357C21.0372 33.1338 20.8604 32.9128 20.7114 32.6769H17.2912C17.3649 32.9107 17.4511 33.1414 17.5504 33.3678H21.2732Z" fill="#5C0736"/>
</g>
<defs>
<clipPath id="clip0_2724_7304">
<rect width="21" height="27" fill="white" transform="translate(13.5 10.5)"/>
</clipPath>
</defs>
</svg>
