<svg width="48" height="48" viewBox="0 0 48 48" fill="none" xmlns="http://www.w3.org/2000/svg">
<rect x="0.5" y="0.5" width="47" height="47" rx="23.5" stroke="#EAECEE"/>
<g clip-path="url(#clip0_2724_1370)">
<path d="M22.2457 34.5H21.5754C19.8343 34.5 18.7867 34.4997 17.9865 34.3508L22.6176 28.2181L22.2457 34.5Z" fill="#34A853"/>
<path d="M29.9053 34.3695C29.1189 34.4994 28.0884 34.5 26.4246 34.5H25.6322L25.2584 28.2162L29.9053 34.3695Z" fill="#34A853"/>
<path d="M34.3275 30.1272C34.2937 30.2881 34.2539 30.4394 34.2054 30.5849C33.8877 31.5373 33.3299 32.3749 32.603 33.0291L27.381 27.1731L34.3275 30.1272Z" fill="#34A853"/>
<path d="M15.3299 32.9666C14.6361 32.3218 14.1024 31.5075 13.7946 30.5849C13.7413 30.4251 13.697 30.2585 13.6613 30.0797L20.495 27.174L15.3299 32.9666Z" fill="#34A853"/>
<path d="M34.5 26.4246C34.5 27.015 34.4983 27.5256 34.4925 27.9738L28.2908 25.5781H34.5V26.4246Z" fill="#34A853"/>
<path d="M19.588 25.5781L13.5056 27.9273C13.5004 27.4903 13.5 26.9946 13.5 26.4246V25.5781H19.588Z" fill="#34A853"/>
<path d="M26.4246 13.5C28.6099 13.5 29.7025 13.5003 30.5849 13.7946C32.2939 14.3647 33.6353 15.7061 34.2054 17.4151C34.4997 18.2974 34.5 19.3901 34.5 21.5754V24.0084H27.9422L32.672 21.9977L31.2691 21.0665L26.68 22.8385L28.8343 19.9879L27.285 19.5638L24.9061 22.2298L24.729 19.2273H23.1508L22.9709 22.2298L20.5939 19.5638L19.0455 19.9879L21.197 22.8376L16.6107 21.0665L15.2077 21.9977L19.9367 24.0084H13.5V21.5754C13.5 19.3901 13.5003 18.2974 13.7946 17.4151C14.3647 15.7061 15.7061 14.3647 17.4151 13.7946C18.2974 13.5003 19.3901 13.5 21.5754 13.5H26.4246Z" fill="#34A853"/>
</g>
<defs>
<clipPath id="clip0_2724_1370">
<rect width="21" height="21" fill="white" transform="translate(13.5 13.5)"/>
</clipPath>
</defs>
</svg>
