<svg width="48" height="48" viewBox="0 0 48 48" fill="none" xmlns="http://www.w3.org/2000/svg">
<rect x="0.5" y="0.5" width="47" height="47" rx="23.5" stroke="#EAECEE"/>
<g clip-path="url(#clip0_2724_1376)">
<path d="M13.5 29.85L15.6028 26.25H19.09C21.3781 26.25 23.3128 27.9196 23.6152 30.1553L24 33H19.4348L18.7767 31.4864C18.3451 30.4937 17.3548 29.85 16.259 29.85H13.5Z" fill="#4285F4"/>
<path d="M34.5 29.85L32.3972 26.25H28.91C26.6218 26.25 24.6872 27.9196 24.3848 30.1553L24 33H28.5652L29.2233 31.4864C29.6549 30.4937 30.6452 29.85 31.741 29.85H34.5Z" fill="#4285F4"/>
<path d="M15.6028 26.25L22.1739 15H24L23.8189 19.2858C23.6625 22.9833 20.6882 25.9618 16.9401 26.1742L15.6028 26.25Z" fill="#4285F4"/>
<path d="M32.3972 26.25L25.8261 15H24L24.1811 19.2858C24.3375 22.9833 27.3118 25.9618 31.0599 26.1742L32.3972 26.25Z" fill="#4285F4"/>
</g>
<defs>
<clipPath id="clip0_2724_1376">
<rect width="21" height="18" fill="white" transform="translate(13.5 15)"/>
</clipPath>
</defs>
</svg>
