<svg width="48" height="48" viewBox="0 0 48 48" fill="none" xmlns="http://www.w3.org/2000/svg">
<rect x="0.5" y="0.5" width="47" height="47" rx="23.5" stroke="#EAECEE"/>
<g clip-path="url(#clip0_2724_1373)">
<path fill-rule="evenodd" clip-rule="evenodd" d="M24 12.5C28.2992 12.5 30.4489 12.4999 32.05 13.4243C33.0989 14.0299 33.9702 14.9011 34.5757 15.95C35.5001 17.5511 35.5 19.7008 35.5 24C35.5 28.2992 35.5001 30.4489 34.5757 32.05C33.9702 33.0989 33.0989 33.9702 32.05 34.5757C30.4489 35.5001 28.2992 35.5 24 35.5C19.7008 35.5 17.5511 35.5001 15.95 34.5757C14.9011 33.9702 14.0299 33.0989 13.4243 32.05C12.4999 30.4489 12.5 28.2992 12.5 24C12.5 19.7008 12.4999 17.5511 13.4243 15.95C14.0299 14.9011 14.9011 14.0299 15.95 13.4243C17.5511 12.4999 19.7008 12.5 24 12.5ZM25.15 14.8C20.069 14.8 15.95 18.919 15.95 24C15.95 29.081 20.069 33.2 25.15 33.2C30.231 33.2 34.35 29.081 34.35 24C34.35 18.919 30.231 14.8 25.15 14.8Z" fill="#EB4335"/>
<path d="M33.2 24C33.2 27.1756 30.6256 29.75 27.45 29.75C24.2744 29.75 21.7 27.1756 21.7 24C21.7 20.8244 24.2744 18.25 27.45 18.25C30.6256 18.25 33.2 20.8244 33.2 24Z" fill="#EB4335"/>
</g>
<defs>
<clipPath id="clip0_2724_1373">
<rect width="23" height="23" fill="white" transform="translate(12.5 12.5)"/>
</clipPath>
</defs>
</svg>
