<svg width="48" height="48" viewBox="0 0 48 48" fill="none" xmlns="http://www.w3.org/2000/svg">
<rect x="0.5" y="0.5" width="47" height="47" rx="23.5" stroke="#EAECEE"/>
<g clip-path="url(#clip0_2724_1379)">
<path d="M18.6248 15.5L22.88 19.2523C23.1327 19.475 23.2783 19.8019 23.2783 20.1462V22.9741L19.023 19.2219C18.7704 18.9991 18.6248 18.6722 18.6248 18.3279V15.5Z" fill="#9747FF"/>
<path d="M18.6248 32.5L22.88 28.7477C23.1327 28.525 23.2783 28.1981 23.2783 27.8538V25.0259L19.023 28.7782C18.7704 29.0009 18.6248 29.3278 18.6248 29.6721V32.5Z" fill="#9747FF"/>
<path d="M13.5482 19.4569L17.7456 23.1375C17.9491 23.3159 18.2068 23.4138 18.4731 23.4138H21.8581L17.671 19.7341C17.4674 19.5551 17.2093 19.4569 16.9426 19.4569H13.5482Z" fill="#9747FF"/>
<path d="M13.5482 28.5431L17.7198 24.8647C17.9237 24.6849 18.1823 24.5862 18.4497 24.5862H21.8682L17.6708 28.2668C17.4673 28.4452 17.2096 28.5431 16.9433 28.5431H13.5482Z" fill="#9747FF"/>
<path d="M29.0599 15.5L24.8047 19.2523C24.552 19.475 24.4064 19.8019 24.4064 20.1462V22.9741L28.6617 19.2219C28.9143 18.9991 29.0599 18.6722 29.0599 18.3279V15.5Z" fill="#9747FF"/>
<path d="M29.0599 32.5L24.8047 28.7477C24.552 28.525 24.4064 28.1981 24.4064 27.8538V25.0259L28.6617 28.7782C28.9143 29.0009 29.0599 29.3278 29.0599 29.6721V32.5Z" fill="#9747FF"/>
<path d="M34.1365 19.4569L29.9391 23.1375C29.7356 23.3159 29.4779 23.4138 29.2117 23.4138H25.8266L30.0137 19.7341C30.2173 19.5551 30.4754 19.4569 30.7421 19.4569H34.1365Z" fill="#9747FF"/>
<path d="M34.1365 28.5431L29.965 24.8647C29.7611 24.6849 29.5024 24.5862 29.2351 24.5862H25.8166L30.0139 28.2668C30.2174 28.4452 30.4751 28.5431 30.7414 28.5431H34.1365Z" fill="#9747FF"/>
</g>
<defs>
<clipPath id="clip0_2724_1379">
<rect width="21" height="17" fill="white" transform="translate(13.5 15.5)"/>
</clipPath>
</defs>
</svg>
