<svg width="48" height="48" viewBox="0 0 48 48" fill="none" xmlns="http://www.w3.org/2000/svg">
<rect x="0.5" y="0.5" width="47" height="47" rx="23.5" stroke="#EAECEE"/>
<g clip-path="url(#clip0_2724_5695)">
<path d="M34.4984 22.2679C34.5006 22.2512 34.5006 22.2343 34.4984 22.2176C34.5004 22.204 34.5004 22.1902 34.4984 22.1766L34.3428 21.0035C34.3204 20.8632 34.2603 20.732 34.1695 20.6247L34.1428 20.5927L34.0939 20.5425L31.4007 18.1599L31.4763 18.2375C31.4145 18.1615 31.3369 18.1008 31.2492 18.0597C31.1616 18.0186 31.066 17.9983 30.9697 18.0001H30.1519C30.0189 17.9974 29.889 18.0408 29.783 18.1234C29.6718 18.0413 29.5378 17.9981 29.4008 18.0001H28.5831C28.4759 17.9983 28.3701 18.0257 28.2764 18.0794C28.1828 18.1331 28.1046 18.2112 28.0498 18.3059C27.9654 18.4412 27.9336 18.6042 27.9609 18.7624L28.0631 19.5018C27.9954 19.4624 27.9188 19.4419 27.8409 19.4425H23.8811C23.7391 19.4434 23.6003 19.4862 23.4812 19.5657C23.366 19.6398 23.2735 19.7458 23.2145 19.8715L22.9079 19.6022C22.7872 19.4875 22.6279 19.4254 22.4634 19.4288H16.2504C16.1079 19.4315 15.9685 19.4724 15.846 19.5475C15.6785 19.6481 15.5558 19.8119 15.5038 20.0039L13.5306 26.7821C13.4937 26.8938 13.4901 27.0142 13.5202 27.128C13.5503 27.2418 13.6127 27.3439 13.6995 27.4211C13.7221 27.4408 13.7458 27.4591 13.7706 27.4759C13.7706 27.4759 13.7306 27.4485 13.7084 27.4257L16.4016 29.8129C16.5155 29.9206 16.6644 29.9808 16.8193 29.9817H23.0812C23.2242 29.9779 23.3637 29.9354 23.4856 29.8585C23.5546 29.8198 23.6163 29.7688 23.6678 29.7079L23.69 29.6759L23.7256 29.6303L23.7523 29.5801L24.0456 29.8402C24.1579 29.9437 24.3036 30.0006 24.4544 30H30.7297C30.8725 29.9951 31.0118 29.9527 31.1341 29.8768C31.2015 29.8357 31.2628 29.785 31.3163 29.7261L31.3385 29.6942L31.3741 29.6485C31.393 29.6197 31.4094 29.5891 31.4229 29.5572C31.4375 29.5296 31.4494 29.5005 31.4585 29.4705L33.2584 23.2812V23.2264C33.2606 23.2052 33.2606 23.1837 33.2584 23.1625V23.1214C33.2606 23.1078 33.2606 23.0939 33.2584 23.0803C33.2604 23.0515 33.2604 23.0225 33.2584 22.9936H33.8362C33.8864 22.9983 33.937 22.9983 33.9872 22.9936H34.0273C34.0598 22.9836 34.0911 22.9698 34.1206 22.9525H34.165L34.245 22.8886L34.2806 22.8612L34.3428 22.7791V22.7517L34.3872 22.6741C34.3848 22.659 34.3848 22.6435 34.3872 22.6285C34.3849 22.621 34.3849 22.613 34.3872 22.6056C34.3967 22.5789 34.4041 22.5514 34.4095 22.5235C34.4074 22.5145 34.4074 22.5051 34.4095 22.4961C34.4073 22.4825 34.4073 22.4686 34.4095 22.455C34.4095 22.455 34.4984 22.277 34.4984 22.2679Z" fill="#1F0640"/>
<path d="M22.6457 19.9491C22.6693 19.971 22.6857 19.9999 22.6929 20.0317C22.7001 20.0635 22.6975 20.0968 22.6857 20.1271L20.7169 26.9008C20.6921 26.9747 20.6414 27.0365 20.5747 27.0742C20.5204 27.1115 20.4576 27.1335 20.3924 27.1381H14.135C14.0816 27.1355 14.031 27.1127 13.9928 27.0742C13.9701 27.0526 13.9542 27.0246 13.9471 26.9938C13.9399 26.9629 13.9419 26.9305 13.9528 26.9008L15.926 20.1271C15.9488 20.0523 15.9979 19.9888 16.0638 19.9491C16.119 19.9145 16.1815 19.8942 16.246 19.8898H22.5034C22.5565 19.8903 22.6073 19.9115 22.6457 19.9491ZM19.3792 25.536L20.5569 21.4919H17.2593L16.086 25.536H19.3792ZM28.6187 20.0176C28.64 20.0431 28.6667 20.0633 28.6967 20.0767C28.7267 20.0902 28.7593 20.0965 28.792 20.0952H29.6053C29.6363 20.0955 29.6668 20.0877 29.694 20.0725C29.7212 20.0574 29.7442 20.0353 29.7608 20.0085C29.7753 19.9875 29.7855 19.9638 29.7908 19.9387C29.7962 19.9136 29.7965 19.8877 29.7919 19.8624L29.632 18.6574C29.6167 18.6016 29.5894 18.5501 29.552 18.5068C29.5306 18.4813 29.5039 18.4611 29.4739 18.4476C29.4439 18.4342 29.4113 18.4279 29.3786 18.4292H28.5654C28.5344 18.4289 28.5038 18.4367 28.4766 18.4518C28.4494 18.467 28.4264 18.4891 28.4098 18.5159C28.3787 18.5798 28.3654 18.6209 28.3787 18.6574L28.5431 19.8624C28.5516 19.9211 28.578 19.9755 28.6187 20.0176ZM31.2008 18.6483C31.1855 18.5925 31.1582 18.541 31.1208 18.4976C31.1003 18.4723 31.0744 18.4521 31.0451 18.4386C31.0159 18.4251 30.9839 18.4188 30.9519 18.42H30.1341C30.1037 18.4192 30.0736 18.4267 30.047 18.442C30.0204 18.4573 29.9983 18.4797 29.9831 18.5068C29.9535 18.5473 29.9407 18.5981 29.9475 18.6483L30.1119 19.8533C30.1222 19.9113 30.1484 19.9652 30.1875 20.0085C30.2092 20.0335 30.236 20.0533 30.2659 20.0667C30.2958 20.0801 30.3282 20.0867 30.3608 20.0861H31.1785C31.2089 20.0865 31.2389 20.0787 31.2654 20.0635C31.2919 20.0482 31.3141 20.0261 31.3297 19.9993C31.3451 19.9789 31.3559 19.9552 31.3613 19.9299C31.3667 19.9047 31.3665 19.8785 31.3607 19.8533L31.2008 18.6483ZM27.9032 20.474L27.8232 19.8807H23.8812C23.8193 19.8842 23.7594 19.9047 23.7078 19.94C23.6751 19.9583 23.6466 19.9837 23.6243 20.0145C23.6021 20.0452 23.5866 20.0805 23.579 20.118L23.2501 21.25C23.237 21.2783 23.2325 21.31 23.2372 21.341C23.242 21.3719 23.2558 21.4007 23.2767 21.4234C23.3142 21.4596 23.3631 21.4807 23.4145 21.4828H28.2054L27.0277 25.5269H22.2501C22.1885 25.5283 22.1285 25.5473 22.0768 25.5816C22.014 25.6226 21.9681 25.686 21.9479 25.7596L21.6146 26.8916C21.6037 26.9207 21.6009 26.9522 21.6064 26.9828C21.6119 27.0135 21.6255 27.0419 21.6457 27.0651C21.682 27.1037 21.7313 27.1265 21.7835 27.129H28.0587C28.1236 27.1232 28.1862 27.1013 28.2409 27.0651C28.3065 27.0272 28.3558 26.9653 28.3787 26.8916L30.183 20.7023H28.152C28.1198 20.7029 28.0878 20.6968 28.058 20.6842C28.0282 20.6716 28.0012 20.6529 27.9787 20.6292C27.942 20.5878 27.916 20.5376 27.9032 20.4832V20.474Z" fill="#F8F3FF"/>
</g>
<defs>
<clipPath id="clip0_2724_5695">
<rect width="21" height="12" fill="white" transform="translate(13.5 18)"/>
</clipPath>
</defs>
</svg>
