<svg width="24" height="24" viewBox="0 0 24 24" fill="none" xmlns="http://www.w3.org/2000/svg">
<path d="M21.3 15.3C21.5238 15.523 21.7013 15.7879 21.8225 16.0796C21.9436 16.3713 22.0059 16.6841 22.0059 17C22.0059 17.3159 21.9436 17.6286 21.8225 17.9203C21.7013 18.2121 21.5238 18.477 21.3 18.7L18.7 21.3C18.4771 21.5237 18.2121 21.7013 17.9204 21.8224C17.6287 21.9435 17.3159 22.0059 17 22.0059C16.6842 22.0059 16.3714 21.9435 16.0797 21.8224C15.788 21.7013 15.523 21.5237 15.3 21.3L2.70005 8.69999C2.2506 8.24836 1.99829 7.63714 1.99829 6.99999C1.99829 6.36283 2.2506 5.75161 2.70005 5.29999L5.30005 2.69999C5.75167 2.25054 6.36289 1.99823 7.00005 1.99823C7.6372 1.99823 8.24842 2.25054 8.70005 2.69999L21.3 15.3Z" stroke="#1A1C1D" stroke-width="1.5" stroke-linecap="round" stroke-linejoin="round"/>
<path d="M14.5 12.5L16.5 10.5" stroke="#1A1C1D" stroke-width="1.5" stroke-linecap="round" stroke-linejoin="round"/>
<path d="M11.5 9.5L13.5 7.5" stroke="#1A1C1D" stroke-width="1.5" stroke-linecap="round" stroke-linejoin="round"/>
<path d="M8.5 6.5L10.5 4.5" stroke="#1A1C1D" stroke-width="1.5" stroke-linecap="round" stroke-linejoin="round"/>
<path d="M17.5 15.5L19.5 13.5" stroke="#1A1C1D" stroke-width="1.5" stroke-linecap="round" stroke-linejoin="round"/>
</svg>
