<svg width="16" height="16" viewBox="0 0 16 16" fill="none" xmlns="http://www.w3.org/2000/svg">
<path d="M9.66665 2.66675H6.33331L4.66665 4.66675H2.66665C2.31302 4.66675 1.97389 4.80722 1.72384 5.05727C1.47379 5.30732 1.33331 5.64646 1.33331 6.00008V12.0001C1.33331 12.3537 1.47379 12.6928 1.72384 12.9429C1.97389 13.1929 2.31302 13.3334 2.66665 13.3334H13.3333C13.6869 13.3334 14.0261 13.1929 14.2761 12.9429C14.5262 12.6928 14.6666 12.3537 14.6666 12.0001V6.00008C14.6666 5.64646 14.5262 5.30732 14.2761 5.05727C14.0261 4.80722 13.6869 4.66675 13.3333 4.66675H11.3333L9.66665 2.66675Z" stroke="#191A1B" stroke-linecap="round" stroke-linejoin="round"/>
<path d="M7.99998 10.6667C9.10455 10.6667 9.99998 9.77132 9.99998 8.66675C9.99998 7.56218 9.10455 6.66675 7.99998 6.66675C6.89541 6.66675 5.99998 7.56218 5.99998 8.66675C5.99998 9.77132 6.89541 10.6667 7.99998 10.6667Z" stroke="#191A1B" stroke-linecap="round" stroke-linejoin="round"/>
</svg>
