<svg width="16" height="16" viewBox="0 0 16 16" fill="none" xmlns="http://www.w3.org/2000/svg">
<path d="M15.3227 6.9046V11.1902M4.13117 8.69027V11.1902C4.13117 11.7585 4.57333 12.3035 5.36038 12.7054C6.14744 13.1072 7.21491 13.333 8.32798 13.333C9.44104 13.333 10.5085 13.1072 11.2956 12.7054C12.0826 12.3035 12.5248 11.7585 12.5248 11.1902V8.69027M14.917 7.56315C15.0422 7.50675 15.1484 7.41407 15.2226 7.29659C15.2967 7.17912 15.3355 7.04202 15.3341 6.90227C15.3327 6.76252 15.2911 6.62627 15.2146 6.51038C15.1381 6.3945 15.03 6.30408 14.9037 6.25033L8.90854 3.46183C8.72628 3.37694 8.5283 3.33301 8.32798 3.33301C8.12766 3.33301 7.92967 3.37694 7.74742 3.46183L1.75297 6.24747C1.62845 6.30317 1.52251 6.39471 1.44812 6.51091C1.37373 6.6271 1.33412 6.76292 1.33412 6.90174C1.33412 7.04057 1.37373 7.17638 1.44812 7.29258C1.52251 7.40878 1.62845 7.50032 1.75297 7.55601L7.74742 10.3474C7.92967 10.4323 8.12766 10.4762 8.32798 10.4762C8.5283 10.4762 8.72628 10.4323 8.90854 10.3474L14.917 7.56315Z" stroke="#191A1B" stroke-linecap="round" stroke-linejoin="round"/>
</svg>
