<svg width="16" height="16" viewBox="0 0 16 16" fill="none" xmlns="http://www.w3.org/2000/svg">
<path d="M6.66671 8.66667C8.50766 8.66667 10 7.17428 10 5.33333C10 3.49238 8.50766 2 6.66671 2C4.82576 2 3.33337 3.49238 3.33337 5.33333C3.33337 7.17428 4.82576 8.66667 6.66671 8.66667Z" stroke="#191A1B" stroke-linecap="round" stroke-linejoin="round"/>
<path d="M1.33337 14.0001C1.33345 13.1607 1.53164 12.3332 1.91181 11.5849C2.29199 10.8366 2.84342 10.1886 3.52126 9.69353C4.1991 9.1985 4.9842 8.87045 5.81273 8.73605C6.64126 8.60165 7.48981 8.6647 8.28937 8.92008" stroke="#191A1B" stroke-linecap="round" stroke-linejoin="round"/>
<path d="M12 14C13.1046 14 14 13.1046 14 12C14 10.8954 13.1046 10 12 10C10.8954 10 10 10.8954 10 12C10 13.1046 10.8954 14 12 14Z" stroke="#191A1B" stroke-linecap="round" stroke-linejoin="round"/>
<path d="M14.6667 14.6666L13.4 13.3999" stroke="#191A1B" stroke-linecap="round" stroke-linejoin="round"/>
</svg>
