<svg width="16" height="16" viewBox="0 0 16 16" fill="none" xmlns="http://www.w3.org/2000/svg">
<path d="M5.83331 9C6.10946 9 6.33331 8.77614 6.33331 8.5C6.33331 8.22386 6.10946 8 5.83331 8C5.55717 8 5.33331 8.22386 5.33331 8.5C5.33331 8.77614 5.55717 9 5.83331 9Z" fill="#191A1B" stroke="#191A1B" stroke-width="2" stroke-linecap="round" stroke-linejoin="round"/>
<path d="M5.83331 3.66675C6.10946 3.66675 6.33331 3.44289 6.33331 3.16675C6.33331 2.89061 6.10946 2.66675 5.83331 2.66675C5.55717 2.66675 5.33331 2.89061 5.33331 3.16675C5.33331 3.44289 5.55717 3.66675 5.83331 3.66675Z" fill="#191A1B" stroke="#191A1B" stroke-width="2" stroke-linecap="round" stroke-linejoin="round"/>
<path d="M5.83331 14.3333C6.10946 14.3333 6.33331 14.1094 6.33331 13.8333C6.33331 13.5571 6.10946 13.3333 5.83331 13.3333C5.55717 13.3333 5.33331 13.5571 5.33331 13.8333C5.33331 14.1094 5.55717 14.3333 5.83331 14.3333Z" fill="#191A1B" stroke="#191A1B" stroke-width="2" stroke-linecap="round" stroke-linejoin="round"/>
<path d="M11.1666 9C11.4428 9 11.6666 8.77614 11.6666 8.5C11.6666 8.22386 11.4428 8 11.1666 8C10.8905 8 10.6666 8.22386 10.6666 8.5C10.6666 8.77614 10.8905 9 11.1666 9Z" fill="#191A1B" stroke="#191A1B" stroke-width="2" stroke-linecap="round" stroke-linejoin="round"/>
<path d="M11.1666 3.66675C11.4428 3.66675 11.6666 3.44289 11.6666 3.16675C11.6666 2.89061 11.4428 2.66675 11.1666 2.66675C10.8905 2.66675 10.6666 2.89061 10.6666 3.16675C10.6666 3.44289 10.8905 3.66675 11.1666 3.66675Z" fill="#191A1B" stroke="#191A1B" stroke-width="2" stroke-linecap="round" stroke-linejoin="round"/>
<path d="M11.1666 14.3333C11.4428 14.3333 11.6666 14.1094 11.6666 13.8333C11.6666 13.5571 11.4428 13.3333 11.1666 13.3333C10.8905 13.3333 10.6666 13.5571 10.6666 13.8333C10.6666 14.1094 10.8905 14.3333 11.1666 14.3333Z" fill="#191A1B" stroke="#191A1B" stroke-width="2" stroke-linecap="round" stroke-linejoin="round"/>
</svg>
