<svg width="16" height="16" viewBox="0 0 16 16" fill="none" xmlns="http://www.w3.org/2000/svg">
<path d="M12 14C12 12.5855 11.4381 11.229 10.4379 10.2288C9.43769 9.22857 8.08113 8.66667 6.66665 8.66667M6.66665 8.66667C5.25216 8.66667 3.8956 9.22857 2.89541 10.2288C1.89522 11.229 1.33331 12.5855 1.33331 14M6.66665 8.66667C8.5076 8.66667 9.99998 7.17428 9.99998 5.33333C9.99998 3.49238 8.5076 2 6.66665 2C4.8257 2 3.33331 3.49238 3.33331 5.33333C3.33331 7.17428 4.8257 8.66667 6.66665 8.66667ZM14.6666 13.3333C14.6666 11.0867 13.3333 9 12 8C12.4383 7.67118 12.7887 7.23939 13.0204 6.74285C13.252 6.2463 13.3577 5.70031 13.328 5.1532C13.2983 4.60609 13.1343 4.07472 12.8503 3.60613C12.5663 3.13754 12.1712 2.74617 11.7 2.46667" stroke="#191A1B" stroke-linecap="round" stroke-linejoin="round"/>
</svg>
