<svg width="16" height="16" viewBox="0 0 16 16" fill="none" xmlns="http://www.w3.org/2000/svg">
<path d="M1.33331 6.33344C1.33333 5.59158 1.55838 4.86716 1.97874 4.25588C2.39909 3.6446 2.99499 3.17521 3.68772 2.90971C4.38045 2.6442 5.13742 2.59507 5.85865 2.7688C6.57989 2.94254 7.23146 3.33096 7.72731 3.88277C7.76224 3.92012 7.80446 3.94989 7.85136 3.97024C7.89827 3.99059 7.94885 4.0011 7.99998 4.0011C8.05111 4.0011 8.10169 3.99059 8.1486 3.97024C8.1955 3.94989 8.23772 3.92012 8.27265 3.88277C8.76694 3.32737 9.41866 2.93569 10.1411 2.75984C10.8635 2.584 11.6223 2.63234 12.3166 2.89843C13.0108 3.16452 13.6076 3.63574 14.0274 4.24938C14.4472 4.86301 14.6702 5.58995 14.6666 6.33344C14.6666 7.86011 13.6666 9.00011 12.6666 10.0001L9.00531 13.5421C8.88109 13.6848 8.72793 13.7994 8.55601 13.8783C8.38409 13.9572 8.19734 13.9987 8.00817 13.9999C7.819 14.0011 7.63174 13.962 7.45884 13.8853C7.28593 13.8085 7.13133 13.6959 7.00531 13.5548L3.33331 10.0001C2.33331 9.00011 1.33331 7.86677 1.33331 6.33344Z" stroke="#191A1B" stroke-linecap="round" stroke-linejoin="round"/>
</svg>
