<svg width="16" height="16" viewBox="0 0 16 16" fill="none" xmlns="http://www.w3.org/2000/svg">
<path d="M1.33337 6.33344C1.33339 5.59158 1.55844 4.86716 1.9788 4.25588C2.39916 3.6446 2.99505 3.17521 3.68778 2.90971C4.38051 2.6442 5.13748 2.59507 5.85872 2.7688C6.57995 2.94254 7.23152 3.33096 7.72737 3.88277C7.7623 3.92012 7.80452 3.94989 7.85142 3.97024C7.89833 3.99059 7.94891 4.0011 8.00004 4.0011C8.05117 4.0011 8.10175 3.99059 8.14866 3.97024C8.19556 3.94989 8.23778 3.92012 8.27271 3.88277C8.767 3.32737 9.41872 2.93569 10.1411 2.75984C10.8635 2.584 11.6224 2.63234 12.3166 2.89843C13.0109 3.16452 13.6076 3.63574 14.0274 4.24938C14.4473 4.86301 14.6702 5.58995 14.6667 6.33344C14.6667 7.86011 13.6667 9.00011 12.6667 10.0001L9.00537 13.5421C8.88115 13.6848 8.72799 13.7994 8.55607 13.8783C8.38415 13.9572 8.1974 13.9987 8.00823 13.9999C7.81906 14.0011 7.63181 13.962 7.4589 13.8853C7.28599 13.8085 7.13139 13.6959 7.00537 13.5548L3.33337 10.0001C2.33337 9.00011 1.33337 7.86677 1.33337 6.33344Z" fill="#191A1B" stroke="#191A1B" stroke-linecap="round" stroke-linejoin="round"/>
</svg>
