<svg width="16" height="16" viewBox="0 0 16 16" fill="none" xmlns="http://www.w3.org/2000/svg">
<path d="M9.99992 8H6.66658M9.99992 5.33333H6.66658M12.6666 11.3333V3.33333C12.6666 2.97971 12.5261 2.64057 12.2761 2.39052C12.026 2.14048 11.6869 2 11.3333 2H2.66659M2.66659 2C3.02021 2 3.35935 2.14048 3.60939 2.39052C3.85944 2.64057 3.99992 2.97971 3.99992 3.33333V12.6667C3.99992 13.0203 4.14039 13.3594 4.39044 13.6095C4.64049 13.8595 4.97963 14 5.33325 14M2.66659 2C2.31296 2 1.97382 2.14048 1.72378 2.39052C1.47373 2.64057 1.33325 2.97971 1.33325 3.33333V4.66667C1.33325 4.84348 1.40349 5.01305 1.52851 5.13807C1.65354 5.2631 1.82311 5.33333 1.99992 5.33333H3.99992M5.33325 14H13.3333C13.6869 14 14.026 13.8595 14.2761 13.6095C14.5261 13.3594 14.6666 13.0203 14.6666 12.6667V12C14.6666 11.8232 14.5963 11.6536 14.4713 11.5286C14.3463 11.4036 14.1767 11.3333 13.9999 11.3333H7.33325C7.15644 11.3333 6.98687 11.4036 6.86185 11.5286C6.73682 11.6536 6.66658 11.8232 6.66658 12V12.6667C6.66658 13.0203 6.52611 13.3594 6.27606 13.6095C6.02601 13.8595 5.68687 14 5.33325 14Z" stroke="#191A1B" stroke-linecap="round" stroke-linejoin="round"/>
</svg>
