<svg width="32" height="32" viewBox="0 0 32 32" fill="none" xmlns="http://www.w3.org/2000/svg">
<path d="M10.5 16C10.5 16.8284 9.82843 17.5 9 17.5C8.17157 17.5 7.5 16.8284 7.5 16C7.5 15.1716 8.17157 14.5 9 14.5C9.82843 14.5 10.5 15.1716 10.5 16Z" fill="#191A1B"/>
<path d="M17.5 16C17.5 16.8284 16.8284 17.5 16 17.5C15.1716 17.5 14.5 16.8284 14.5 16C14.5 15.1716 15.1716 14.5 16 14.5C16.8284 14.5 17.5 15.1716 17.5 16Z" fill="#191A1B"/>
<path d="M24.5 16C24.5 16.8284 23.8284 17.5 23 17.5C22.1716 17.5 21.5 16.8284 21.5 16C21.5 15.1716 22.1716 14.5 23 14.5C23.8284 14.5 24.5 15.1716 24.5 16Z" fill="#191A1B"/>
</svg>
