<svg width="16" height="16" viewBox="0 0 16 16" fill="none" xmlns="http://www.w3.org/2000/svg">
<path d="M10.318 8.59325L11.328 14.2773C11.3393 14.3442 11.3299 14.413 11.3011 14.4744C11.2722 14.5359 11.2253 14.587 11.1666 14.6211C11.1079 14.6552 11.0402 14.6705 10.9725 14.6651C10.9049 14.6596 10.8405 14.6336 10.788 14.5906L8.40133 12.7993C8.28612 12.7132 8.14615 12.6667 8.00233 12.6667C7.85851 12.6667 7.71855 12.7132 7.60333 12.7993L5.21267 14.5899C5.16021 14.6329 5.09591 14.6588 5.02833 14.6643C4.96075 14.6697 4.89311 14.6545 4.83444 14.6205C4.77577 14.5865 4.72885 14.5355 4.69995 14.4741C4.67104 14.4128 4.66152 14.3441 4.67267 14.2773L5.682 8.59325M12 5.33325C12 7.54239 10.2091 9.33325 8 9.33325C5.79086 9.33325 4 7.54239 4 5.33325C4 3.12411 5.79086 1.33325 8 1.33325C10.2091 1.33325 12 3.12411 12 5.33325Z" stroke="#191A1B" stroke-linecap="round" stroke-linejoin="round"/>
</svg>
