<svg width="16" height="16" viewBox="0 0 16 16" fill="none" xmlns="http://www.w3.org/2000/svg">
<path d="M6.84534 13.3333C6.96237 13.536 7.13068 13.7043 7.33337 13.8213C7.53605 13.9384 7.76597 14 8.00001 14C8.23404 14 8.46396 13.9384 8.66664 13.8213C8.86933 13.7043 9.03764 13.536 9.15467 13.3333M9.27734 1.54268C8.67566 1.33993 8.03435 1.28332 7.40646 1.37753C6.77857 1.47175 6.18212 1.71408 5.66644 2.08449C5.15076 2.45489 4.73066 2.94274 4.44089 3.50768C4.15111 4.07262 3.99999 4.69843 4 5.33335C4 8.33268 3.05934 9.30402 2.17334 10.218C2.08638 10.3136 2.02907 10.4323 2.00838 10.5599C1.98768 10.6874 2.00448 10.8182 2.05674 10.9364C2.10901 11.0545 2.19448 11.1549 2.30276 11.2254C2.41104 11.2959 2.53747 11.3334 2.66667 11.3333H13.3333C13.4625 11.3334 13.589 11.2959 13.6972 11.2254C13.8055 11.1549 13.891 11.0545 13.9433 10.9364C13.9955 10.8182 14.0123 10.6874 13.9916 10.5599C13.9709 10.4323 13.9136 10.3136 13.8267 10.218C13.6895 10.0767 13.5593 9.92877 13.4367 9.77468" stroke="#191A1B" stroke-linecap="round" stroke-linejoin="round"/>
<path d="M12 7.33325C13.1046 7.33325 14 6.43782 14 5.33325C14 4.22868 13.1046 3.33325 12 3.33325C10.8954 3.33325 10 4.22868 10 5.33325C10 6.43782 10.8954 7.33325 12 7.33325Z" fill="#BA0808"/>
</svg>
