<svg width="16" height="16" viewBox="0 0 16 16" fill="none" xmlns="http://www.w3.org/2000/svg">
<path d="M14.9955 7.27041C14.7483 5.71374 14.076 4.33353 13.0511 3.27907C12.0656 2.26512 10.7951 1.58954 9.37512 1.3239C8.97087 1.10005 8.54499 1 8 1C7.45501 1 7.02913 1.10008 6.62488 1.3239C5.20488 1.58954 3.93435 2.26512 2.94888 3.27907C1.92403 4.33353 1.25167 5.71367 1.00451 7.27047C0.989116 7.36761 1.01353 7.46882 1.0715 7.5482C1.13437 7.63422 1.22879 7.68563 1.32402 7.68563C1.37445 7.68563 1.42388 7.67101 1.46703 7.64338C1.47256 7.63984 1.47816 7.63659 1.48368 7.63309L7.84387 14.9258C7.84439 14.9264 7.84548 14.9275 7.846 14.9281C7.84715 14.9294 7.84824 14.9308 7.84942 14.932C7.84988 14.9326 7.85043 14.933 7.85089 14.9335C7.85275 14.9354 7.85472 14.9372 7.85664 14.9391C7.85808 14.9405 7.85942 14.9421 7.8609 14.9434C7.86153 14.944 7.86213 14.9445 7.86276 14.945C7.86601 14.948 7.86943 14.9507 7.87288 14.9535C7.87416 14.9545 7.87537 14.9557 7.87668 14.9567C7.87739 14.9572 7.87802 14.9579 7.87876 14.9584C7.87952 14.959 7.88032 14.9594 7.88108 14.96C7.88387 14.9621 7.88685 14.9639 7.88975 14.9658C7.88961 14.9657 7.88989 14.9659 7.88975 14.9658C7.89221 14.9675 7.89503 14.9696 7.89754 14.9711C7.89858 14.9717 7.89962 14.9722 7.90063 14.9727C7.90162 14.9733 7.9026 14.9739 7.90364 14.9745C7.90446 14.975 7.90531 14.9753 7.90613 14.9757C7.90667 14.9761 7.9073 14.9763 7.90785 14.9766C7.90862 14.977 7.90941 14.9774 7.9102 14.9778C7.91253 14.979 7.91477 14.9804 7.91712 14.9815C7.91843 14.9821 7.91977 14.9825 7.92108 14.9831C7.92182 14.9835 7.92251 14.9839 7.92327 14.9842C7.92541 14.9851 7.92757 14.9857 7.9297 14.9865C7.93008 14.9867 7.93046 14.9868 7.93085 14.987C7.93153 14.9872 7.93216 14.9875 7.93282 14.9878C7.93369 14.9881 7.93454 14.9885 7.93544 14.9888C7.9361 14.989 7.93667 14.9894 7.93733 14.9896C7.93826 14.9899 7.93927 14.9901 7.9402 14.9904C7.94392 14.9916 7.94769 14.9925 7.95146 14.9935C7.95133 14.9935 7.95157 14.9936 7.95146 14.9935C7.95349 14.994 7.95592 14.9949 7.95794 14.9953C7.95849 14.9954 7.95904 14.9955 7.95956 14.9956C7.96142 14.996 7.9633 14.9963 7.96514 14.9967C7.96669 14.997 7.96828 14.9971 7.96984 14.9974C7.97194 14.9977 7.97408 14.9981 7.97618 14.9983C7.97709 14.9984 7.97799 14.9987 7.97892 14.9988C7.97881 14.9988 7.97903 14.9988 7.97892 14.9988C7.98586 14.9995 7.99314 15 8.00003 15C8.00692 15 8.01386 14.9996 8.02078 14.9988C8.02064 14.9988 8.02092 14.9988 8.02078 14.9988C8.02168 14.9987 8.02299 14.9984 8.0239 14.9983C8.026 14.998 8.02814 14.9977 8.03024 14.9974C8.0318 14.9971 8.03339 14.9969 8.03495 14.9967C8.03683 14.9963 8.03866 14.996 8.04055 14.9956C8.04107 14.9955 8.04162 14.9955 8.04214 14.9953C8.04432 14.9948 8.0464 14.9941 8.04856 14.9935C8.05239 14.9926 8.05616 14.9916 8.05999 14.9903C8.06092 14.99 8.06188 14.9899 8.06278 14.9896C8.06344 14.9894 8.06404 14.989 8.06469 14.9888C8.06554 14.9885 8.06639 14.9881 8.06721 14.9878C8.06825 14.9874 8.06926 14.987 8.0703 14.9866C8.07249 14.9857 8.07468 14.9851 8.07686 14.9842C8.07763 14.9838 8.07834 14.9834 8.0791 14.9831C8.08039 14.9825 8.0817 14.9821 8.08296 14.9815C8.08605 14.9801 8.08903 14.9783 8.09212 14.9767C8.09278 14.9763 8.09346 14.976 8.09412 14.9757C8.09488 14.9752 8.09565 14.975 8.09641 14.9746C8.09748 14.974 8.09846 14.9733 8.0995 14.9727C8.10051 14.9722 8.1015 14.9717 8.10251 14.9712C8.10519 14.9695 8.10773 14.9676 8.11039 14.9658C8.11329 14.9639 8.11627 14.9621 8.11905 14.96C8.11977 14.9594 8.12053 14.959 8.12127 14.9585C8.12204 14.9579 8.12275 14.9572 8.12351 14.9566C8.12474 14.9557 8.12586 14.9546 8.12707 14.9536C8.13051 14.9509 8.13407 14.948 8.13738 14.945C8.13795 14.9445 8.13858 14.944 8.13913 14.9435C8.14063 14.9421 8.14197 14.9405 8.14345 14.9391C8.14541 14.9372 8.14744 14.9353 8.14932 14.9333C8.14973 14.9329 8.15017 14.9326 8.15058 14.9321C8.15179 14.9308 8.15288 14.9294 8.15403 14.9281C8.15455 14.9276 8.15515 14.9271 8.15564 14.9265L14.5164 7.63303C14.522 7.63653 14.5276 7.63981 14.5332 7.64338C14.5763 7.67101 14.6257 7.68563 14.6762 7.68563C14.7715 7.68563 14.8659 7.63428 14.9287 7.5482C14.9865 7.46885 15.0109 7.36761 14.9955 7.27041ZM6.81721 1.77757C7.16279 1.58613 7.51858 1.50384 7.99997 1.50384C8.48136 1.50384 8.83713 1.58613 9.18273 1.77757C10.1524 2.7784 10.6102 5.32186 10.1943 7.26934C9.53281 6.81864 8.77479 6.5802 8.00085 6.58001C8.00071 6.57998 8.00005 6.58001 7.99989 6.58001C7.22584 6.58001 6.46746 6.81842 5.80574 7.26931C5.38981 5.32183 5.84752 2.7784 6.81721 1.77757ZM3.24373 3.65354C4.02705 2.84756 5.00546 2.26953 6.10102 1.96032C5.34278 3.21659 5.0141 5.34339 5.3276 7.13342C4.71838 6.77076 4.03905 6.57995 3.34687 6.57995C2.70374 6.57995 2.0678 6.74557 1.49178 7.06115C1.75614 5.73768 2.35825 4.56464 3.24373 3.65354ZM1.90552 7.40318C2.36118 7.19327 2.85159 7.08384 3.34684 7.08384C4.04758 7.08384 4.73364 7.30126 5.33086 7.71248C5.38021 7.74649 5.43971 7.78293 5.50679 7.8084L7.43956 13.7487L1.90552 7.40318ZM7.99986 14.0252L5.95796 7.74955C5.98027 7.73608 6.00185 7.72211 6.0223 7.70811C6.6179 7.29972 7.30175 7.08388 8.00011 7.08388C8.69822 7.08388 9.38207 7.29972 9.97767 7.70811C9.99807 7.72208 10.0196 7.73602 10.0418 7.74946L7.99986 14.0252ZM8.56014 13.7487L10.4929 7.8085C10.5601 7.78299 10.6196 7.74649 10.669 7.71248C11.2663 7.30119 11.9524 7.08384 12.6531 7.08384C13.1483 7.08384 13.6387 7.19327 14.0943 7.40312L8.56014 13.7487ZM12.6531 6.57998C11.9609 6.57998 11.2816 6.77079 10.6723 7.13345C10.9858 5.34342 10.6571 3.21663 9.89892 1.96035C10.9945 2.26956 11.9729 2.84759 12.7562 3.65358C13.6417 4.56464 14.2438 5.73777 14.5082 7.06122C13.9322 6.74563 13.2962 6.57998 12.6531 6.57998Z" fill="#191A1B"/>
<path d="M7.84387 14.9258L1.48368 7.63309C1.47816 7.63659 1.47256 7.63984 1.46703 7.64338C1.42388 7.67101 1.37445 7.68563 1.32402 7.68563C1.22879 7.68563 1.13437 7.63422 1.0715 7.5482C1.01353 7.46882 0.989116 7.36761 1.00451 7.27047C1.25167 5.71367 1.92403 4.33353 2.94888 3.27907C3.93435 2.26512 5.20488 1.58954 6.62488 1.3239C7.02913 1.10008 7.45501 1 8 1C8.54499 1 8.97087 1.10005 9.37512 1.3239C10.7951 1.58954 12.0656 2.26512 13.0511 3.27907C14.076 4.33353 14.7483 5.71374 14.9955 7.27041C15.0109 7.36761 14.9865 7.46885 14.9287 7.5482C14.8659 7.63428 14.7715 7.68563 14.6762 7.68563C14.6257 7.68563 14.5763 7.67101 14.5332 7.64338C14.5276 7.63981 14.522 7.63653 14.5164 7.63303L8.15564 14.9265M7.84387 14.9258C7.84395 14.9259 7.84376 14.9257 7.84387 14.9258ZM7.84387 14.9258C7.84439 14.9264 7.84548 14.9275 7.846 14.9281C7.84715 14.9294 7.84824 14.9308 7.84942 14.932C7.84988 14.9326 7.85043 14.933 7.85089 14.9335C7.85275 14.9354 7.85472 14.9372 7.85664 14.9391C7.85808 14.9405 7.85942 14.9421 7.8609 14.9434C7.86153 14.944 7.86213 14.9445 7.86276 14.945C7.86601 14.948 7.86943 14.9507 7.87288 14.9535C7.87416 14.9545 7.87537 14.9557 7.87668 14.9567C7.87739 14.9572 7.87802 14.9579 7.87876 14.9584C7.87952 14.959 7.88032 14.9594 7.88108 14.96C7.88387 14.9621 7.88685 14.9639 7.88975 14.9658M7.88975 14.9658C7.88989 14.9659 7.88961 14.9657 7.88975 14.9658ZM7.88975 14.9658C7.89221 14.9675 7.89503 14.9696 7.89754 14.9711C7.89858 14.9717 7.89962 14.9722 7.90063 14.9727C7.90162 14.9733 7.9026 14.9739 7.90364 14.9745C7.90446 14.975 7.90531 14.9753 7.90613 14.9757C7.90667 14.9761 7.9073 14.9763 7.90785 14.9766C7.90862 14.977 7.90941 14.9774 7.9102 14.9778C7.91253 14.979 7.91477 14.9804 7.91712 14.9815C7.91843 14.9821 7.91977 14.9825 7.92109 14.9831C7.92182 14.9835 7.92251 14.9839 7.92327 14.9842C7.92541 14.9851 7.92757 14.9857 7.9297 14.9865C7.93008 14.9867 7.93046 14.9868 7.93085 14.987C7.93153 14.9872 7.93216 14.9875 7.93282 14.9878C7.93369 14.9881 7.93454 14.9885 7.93544 14.9888C7.9361 14.989 7.93667 14.9894 7.93733 14.9896C7.93826 14.9899 7.93927 14.9901 7.9402 14.9904C7.94392 14.9916 7.94769 14.9925 7.95146 14.9935M7.95146 14.9935C7.95157 14.9936 7.95133 14.9935 7.95146 14.9935ZM7.95146 14.9935C7.95349 14.994 7.95592 14.9949 7.95794 14.9953C7.95849 14.9954 7.95904 14.9955 7.95956 14.9956C7.96142 14.996 7.9633 14.9963 7.96514 14.9967C7.96669 14.997 7.96828 14.9971 7.96984 14.9974C7.97194 14.9977 7.97408 14.9981 7.97618 14.9983C7.97709 14.9984 7.97799 14.9987 7.97892 14.9988M7.97892 14.9988C7.97903 14.9988 7.97881 14.9988 7.97892 14.9988ZM7.97892 14.9988C7.98586 14.9995 7.99314 15 8.00003 15C8.00692 15 8.01386 14.9996 8.02078 14.9988M8.02078 14.9988C8.02092 14.9988 8.02064 14.9988 8.02078 14.9988ZM8.02078 14.9988C8.02168 14.9987 8.023 14.9984 8.0239 14.9983C8.026 14.998 8.02814 14.9977 8.03024 14.9974C8.0318 14.9971 8.03339 14.9969 8.03494 14.9967C8.03683 14.9963 8.03866 14.996 8.04055 14.9956C8.04107 14.9955 8.04162 14.9955 8.04214 14.9953C8.04432 14.9948 8.0464 14.9941 8.04856 14.9935C8.05239 14.9926 8.05616 14.9916 8.05999 14.9903C8.06092 14.99 8.06188 14.9899 8.06278 14.9896C8.06344 14.9894 8.06404 14.989 8.06469 14.9888C8.06554 14.9885 8.06639 14.9881 8.06721 14.9878C8.06825 14.9874 8.06926 14.987 8.0703 14.9866C8.07249 14.9857 8.07468 14.9851 8.07686 14.9842C8.07763 14.9838 8.07834 14.9834 8.0791 14.9831C8.08039 14.9825 8.0817 14.9821 8.08296 14.9815C8.08605 14.9801 8.08903 14.9783 8.09212 14.9767C8.09278 14.9763 8.09346 14.976 8.09412 14.9757C8.09488 14.9752 8.09565 14.975 8.09641 14.9746C8.09748 14.974 8.09846 14.9733 8.0995 14.9727C8.10052 14.9722 8.1015 14.9717 8.10251 14.9712C8.10519 14.9695 8.10773 14.9676 8.11039 14.9658C8.11329 14.9639 8.11627 14.9621 8.11905 14.96C8.11977 14.9594 8.12053 14.959 8.12127 14.9585C8.12204 14.9579 8.12275 14.9572 8.12351 14.9566C8.12474 14.9557 8.12586 14.9546 8.12707 14.9536C8.13051 14.9509 8.13407 14.948 8.13738 14.945C8.13795 14.9445 8.13858 14.944 8.13913 14.9435C8.14063 14.9421 8.14197 14.9405 8.14345 14.9391C8.14541 14.9372 8.14744 14.9353 8.14932 14.9333C8.14973 14.9329 8.15017 14.9326 8.15058 14.9321C8.15179 14.9308 8.15288 14.9294 8.15403 14.9281C8.15455 14.9276 8.15515 14.9271 8.15564 14.9265M8.15564 14.9265C8.15572 14.9264 8.15553 14.9266 8.15564 14.9265ZM6.81721 1.77757C7.16279 1.58613 7.51858 1.50384 7.99997 1.50384C8.48136 1.50384 8.83713 1.58613 9.18273 1.77757C10.1524 2.7784 10.6102 5.32186 10.1943 7.26934C9.53281 6.81864 8.77479 6.5802 8.00085 6.58001C8.00071 6.57998 8.00005 6.58001 7.99989 6.58001C7.22584 6.58001 6.46746 6.81842 5.80574 7.26931C5.38981 5.32183 5.84752 2.7784 6.81721 1.77757ZM3.24373 3.65354C4.02705 2.84756 5.00546 2.26953 6.10102 1.96032C5.34278 3.21659 5.01411 5.34339 5.3276 7.13342C4.71838 6.77076 4.03905 6.57995 3.34687 6.57995C2.70374 6.57995 2.0678 6.74557 1.49178 7.06115C1.75614 5.73768 2.35825 4.56464 3.24373 3.65354ZM1.90552 7.40318C2.36118 7.19327 2.85159 7.08384 3.34684 7.08384C4.04758 7.08384 4.73364 7.30126 5.33086 7.71248C5.38021 7.74649 5.43971 7.78293 5.50679 7.8084L7.43956 13.7487L1.90552 7.40318ZM7.99986 14.0252L5.95796 7.74955C5.98027 7.73608 6.00185 7.72211 6.0223 7.70811C6.6179 7.29972 7.30175 7.08388 8.00011 7.08388C8.69822 7.08388 9.38207 7.29972 9.97767 7.70811C9.99807 7.72208 10.0196 7.73602 10.0418 7.74946L7.99986 14.0252ZM8.56014 13.7487L10.4929 7.8085C10.5601 7.78299 10.6196 7.74649 10.669 7.71248C11.2663 7.30119 11.9524 7.08384 12.6531 7.08384C13.1483 7.08384 13.6387 7.19327 14.0943 7.40312L8.56014 13.7487ZM12.6531 6.57998C11.9609 6.57998 11.2816 6.77079 10.6723 7.13345C10.9858 5.34342 10.6571 3.21663 9.89892 1.96035C10.9945 2.26956 11.9729 2.84759 12.7562 3.65358C13.6417 4.56464 14.2438 5.73777 14.5082 7.06122C13.9322 6.74563 13.2962 6.57998 12.6531 6.57998Z" stroke="#191A1B" stroke-width="0.4"/>
</svg>
