<svg width="16" height="16" viewBox="0 0 16 16" fill="none" xmlns="http://www.w3.org/2000/svg">
<g clip-path="url(#clip0_2635_7349)">
<path d="M9.66667 8.33345L11 7.00011M7.66667 6.33345L9.00001 5.00011M5.66667 4.33345L7.00001 3.00011M11.6667 10.3334L13 9.00011M14.2 10.2001C14.3492 10.3488 14.4675 10.5254 14.5483 10.7199C14.629 10.9144 14.6706 11.1229 14.6706 11.3334C14.6706 11.544 14.629 11.7525 14.5483 11.947C14.4675 12.1415 14.3492 12.3181 14.2 12.4668L12.4667 14.2001C12.318 14.3493 12.1414 14.4676 11.9469 14.5484C11.7524 14.6291 11.5439 14.6707 11.3333 14.6707C11.1228 14.6707 10.9142 14.6291 10.7198 14.5484C10.5253 14.4676 10.3487 14.3493 10.2 14.2001L1.80001 5.80011C1.50038 5.49903 1.33217 5.09155 1.33217 4.66678C1.33217 4.24201 1.50038 3.83453 1.80001 3.53345L3.53334 1.80011C3.83442 1.50048 4.2419 1.33228 4.66667 1.33228C5.09144 1.33228 5.49892 1.50048 5.80001 1.80011L14.2 10.2001Z" stroke="#191A1B" stroke-linecap="round" stroke-linejoin="round"/>
</g>
<defs>
<clipPath id="clip0_2635_7349">
<rect width="16" height="16" fill="white"/>
</clipPath>
</defs>
</svg>
