<svg width="16" height="16" viewBox="0 0 16 16" fill="none" xmlns="http://www.w3.org/2000/svg">
<path d="M15.0007 8.15546C15.0007 7.57991 14.953 7.15991 14.8499 6.72437H8.14357V9.32211H12.08C12.0007 9.96769 11.5721 10.9399 10.6197 11.5932L10.6064 11.6802L12.7268 13.29L12.8737 13.3044C14.2229 12.0832 15.0007 10.2866 15.0007 8.15546Z" fill="#4285F4"/>
<path d="M8.14312 14.9999C10.0717 14.9999 11.6907 14.3776 12.8733 13.3043L10.6193 11.5931C10.0161 12.0054 9.20659 12.2932 8.14312 12.2932C6.25425 12.2932 4.6511 11.0721 4.07962 9.38428L3.99585 9.39125L1.79101 11.0635L1.76218 11.142C2.93676 13.4287 5.34946 14.9999 8.14312 14.9999Z" fill="#34A853"/>
<path d="M4.08003 9.38448C3.92924 8.94893 3.84197 8.48223 3.84197 8.00003C3.84197 7.51778 3.92924 7.05113 4.0721 6.61558L4.06811 6.52282L1.83563 4.82373L1.76259 4.85778C1.27848 5.80668 1.0007 6.87226 1.0007 8.00003C1.0007 9.1278 1.27848 10.1933 1.76259 11.1422L4.08003 9.38448Z" fill="#FBBC05"/>
<path d="M8.14316 3.70665C9.48441 3.70665 10.3892 4.27442 10.905 4.7489L12.9209 2.82C11.6829 1.69222 10.0717 1 8.14316 1C5.34948 1 2.93677 2.5711 1.76218 4.85775L4.0717 6.61555C4.65111 4.92777 6.25428 3.70665 8.14316 3.70665Z" fill="#EB4335"/>
</svg>
