<svg width="16" height="16" viewBox="0 0 16 16" fill="none" xmlns="http://www.w3.org/2000/svg">
<g clip-path="url(#clip0_2637_9111)">
<path d="M8.10134 4.59733C7.46934 4.59733 6.49133 3.87867 5.46133 3.904C4.10134 3.922 2.85467 4.69267 2.154 5.91333C0.742668 8.36333 1.79 11.982 3.16667 13.9733C3.842 14.9427 4.63867 16.0333 5.69467 15.9993C6.708 15.956 7.088 15.3413 8.318 15.3413C9.53867 15.3413 9.88467 15.9993 10.958 15.9733C12.0493 15.956 12.742 14.9867 13.4087 14.008C14.1793 12.8827 14.4993 11.7913 14.5167 11.7313C14.4907 11.7227 12.3953 10.9173 12.37 8.49333C12.3527 6.46667 14.0233 5.49733 14.1013 5.454C13.1487 4.06067 11.686 3.90467 11.1747 3.87C9.84133 3.766 8.72467 4.59733 8.10134 4.59733ZM10.3533 2.55333C10.9153 1.87867 11.2867 0.935333 11.1833 0C10.3787 0.0346667 9.40867 0.536667 8.82867 1.212C8.30867 1.80933 7.85933 2.77067 7.98 3.688C8.872 3.75733 9.79 3.22933 10.3527 2.554" fill="#191A1B"/>
</g>
<defs>
<clipPath id="clip0_2637_9111">
<rect width="16" height="16" fill="white"/>
</clipPath>
</defs>
</svg>
