<svg width="16" height="16" viewBox="0 0 16 16" fill="none" xmlns="http://www.w3.org/2000/svg">
<g clip-path="url(#clip0_2635_7345)">
<path d="M5 5.33325C5.1841 5.33325 5.33334 5.18401 5.33334 4.99992C5.33334 4.81582 5.1841 4.66658 5 4.66658C4.81591 4.66658 4.66667 4.81582 4.66667 4.99992C4.66667 5.18401 4.81591 5.33325 5 5.33325Z" fill="#191A1B"/>
<path d="M8.39067 1.72392C8.14068 1.47385 7.8016 1.33333 7.448 1.33325H2.66667C2.31305 1.33325 1.97391 1.47373 1.72386 1.72378C1.47381 1.97382 1.33334 2.31296 1.33334 2.66659V7.44792C1.33341 7.80151 1.47394 8.1406 1.724 8.39059L7.52667 14.1933C7.82968 14.4943 8.2395 14.6633 8.66667 14.6633C9.09384 14.6633 9.50366 14.4943 9.80667 14.1933L14.1933 9.80659C14.4944 9.50358 14.6634 9.09375 14.6634 8.66659C14.6634 8.23942 14.4944 7.82959 14.1933 7.52659L8.39067 1.72392Z" stroke="#191A1B" stroke-linecap="round" stroke-linejoin="round"/>
<path d="M5 5.33325C5.1841 5.33325 5.33334 5.18401 5.33334 4.99992C5.33334 4.81582 5.1841 4.66658 5 4.66658C4.81591 4.66658 4.66667 4.81582 4.66667 4.99992C4.66667 5.18401 4.81591 5.33325 5 5.33325Z" stroke="#191A1B" stroke-linecap="round" stroke-linejoin="round"/>
</g>
<defs>
<clipPath id="clip0_2635_7345">
<rect width="16" height="16" fill="white"/>
</clipPath>
</defs>
</svg>
