<svg width="16" height="16" viewBox="0 0 16 16" fill="none" xmlns="http://www.w3.org/2000/svg">
<path d="M6.00002 9.33341L2.66669 6.00008M2.66669 6.00008L6.00002 2.66675M2.66669 6.00008L9.66669 6.00008C10.1482 6.00008 10.625 6.09492 11.0699 6.27919C11.5147 6.46346 11.9189 6.73354 12.2594 7.07402C12.5999 7.4145 12.87 7.81871 13.0542 8.26358C13.2385 8.70844 13.3334 9.18523 13.3334 9.66675C13.3334 10.1483 13.2385 10.6251 13.0542 11.0699C12.87 11.5148 12.5999 11.919 12.2594 12.2595C11.9189 12.6 11.5147 12.87 11.0699 13.0543C10.625 13.2386 10.1482 13.3334 9.66669 13.3334H7.33335" stroke="#191A1B" stroke-linecap="round" stroke-linejoin="round"/>
</svg>
