<svg width="16" height="16" viewBox="0 0 16 16" fill="none" xmlns="http://www.w3.org/2000/svg">
<path d="M8 8.6666V13.9999M8 8.6666L5.33333 11.3333M8 8.6666L10.6667 11.3333M2.66667 9.9326C2.17136 9.42654 1.79771 8.81441 1.57402 8.14256C1.35033 7.47071 1.28247 6.75676 1.37557 6.0548C1.46868 5.35284 1.7203 4.68127 2.1114 4.09096C2.50249 3.50064 3.02279 3.00708 3.63289 2.64763C4.24299 2.28819 4.92688 2.0723 5.63278 2.01632C6.33867 1.96033 7.04805 2.06572 7.70718 2.32451C8.36631 2.58329 8.9579 2.98867 9.43715 3.50996C9.91641 4.03124 10.2707 4.65475 10.4733 5.33326H11.6667C12.3103 5.33319 12.937 5.54015 13.454 5.92356C13.971 6.30697 14.351 6.84651 14.5378 7.46247C14.7247 8.07843 14.7085 8.73815 14.4916 9.34418C14.2747 9.95021 13.8686 10.4704 13.3333 10.8279" stroke="#191A1B" stroke-linecap="round" stroke-linejoin="round"/>
</svg>
